<svg width="20" height="20" viewBox="0 0 20 20" fill="none" xmlns="http://www.w3.org/2000/svg">
<path d="M16.67 1.66H15V0.83C15 0.37 14.63 0 14.17 0C13.71 0 13.34 0.37 13.34 0.83V1.66H6.67V0.83C6.67 0.37 6.3 0 5.84 0C5.38 0 5.01 0.37 5.01 0.83V1.66H3.34C1.49 1.66 0 3.15 0 4.99V16.66C0 18.5 1.49 19.99 3.33 19.99H16.66C18.5 19.99 19.99 18.5 19.99 16.66V4.99C19.99 3.15 18.5 1.66 16.66 1.66H16.67ZM3.33 3.32H5V4.15C5 4.61 5.37 4.98 5.83 4.98C6.29 4.98 6.66 4.61 6.66 4.15V3.32H13.33V4.15C13.33 4.61 13.7 4.98 14.16 4.98C14.62 4.98 14.99 4.61 14.99 4.15V3.32H16.66C17.58 3.32 18.33 4.07 18.33 4.99V6.66H1.67V4.99C1.67 4.07 2.42 3.32 3.34 3.32H3.33ZM16.67 18.32H3.33C2.41 18.32 1.66 17.57 1.66 16.65V8.32H18.33V16.65C18.33 17.57 17.58 18.32 16.66 18.32H16.67Z" fill="#9FA0A6"/>
<path d="M5.83 12.4901C6.2884 12.4901 6.66 12.1185 6.66 11.6601C6.66 11.2017 6.2884 10.8301 5.83 10.8301C5.3716 10.8301 5 11.2017 5 11.6601C5 12.1185 5.3716 12.4901 5.83 12.4901Z" fill="#9FA0A6"/>
<path d="M9.99998 12.4901C10.4584 12.4901 10.83 12.1185 10.83 11.6601C10.83 11.2017 10.4584 10.8301 9.99998 10.8301C9.54159 10.8301 9.16998 11.2017 9.16998 11.6601C9.16998 12.1185 9.54159 12.4901 9.99998 12.4901Z" fill="#9FA0A6"/>
<path d="M5.83 15.8202C6.2884 15.8202 6.66 15.4486 6.66 14.9902C6.66 14.5318 6.2884 14.1602 5.83 14.1602C5.3716 14.1602 5 14.5318 5 14.9902C5 15.4486 5.3716 15.8202 5.83 15.8202Z" fill="#9FA0A6"/>
<path d="M9.99998 15.8202C10.4584 15.8202 10.83 15.4486 10.83 14.9902C10.83 14.5318 10.4584 14.1602 9.99998 14.1602C9.54159 14.1602 9.16998 14.5318 9.16998 14.9902C9.16998 15.4486 9.54159 15.8202 9.99998 15.8202Z" fill="#9FA0A6"/>
<path d="M14.17 12.4901C14.6284 12.4901 15 12.1185 15 11.6601C15 11.2017 14.6284 10.8301 14.17 10.8301C13.7116 10.8301 13.34 11.2017 13.34 11.6601C13.34 12.1185 13.7116 12.4901 14.17 12.4901Z" fill="#9FA0A6"/>
<path d="M14.17 15.8202C14.6284 15.8202 15 15.4486 15 14.9902C15 14.5318 14.6284 14.1602 14.17 14.1602C13.7116 14.1602 13.34 14.5318 13.34 14.9902C13.34 15.4486 13.7116 15.8202 14.17 15.8202Z" fill="#9FA0A6"/>
</svg>
