<svg width="20" height="20" viewBox="0 0 20 20" fill="none" xmlns="http://www.w3.org/2000/svg">
<path d="M10 2C14.41 2 18 5.59 18 10C18 14.41 14.41 18 10 18C5.59 18 2 14.41 2 10C2 5.59 5.59 2 10 2ZM10 0C4.48 0 0 4.48 0 10C0 15.52 4.48 20 10 20C15.52 20 20 15.52 20 10C20 4.48 15.52 0 10 0Z" fill="#9FA0A6"/>
<path d="M10 4.08008C9.45 4.08008 9 4.53008 9 5.08008V9.08008H7C6.45 9.08008 6 9.53008 6 10.0801C6 10.6301 6.45 11.0801 7 11.0801H10C10.55 11.0801 11 10.6301 11 10.0801V5.08008C11 4.53008 10.55 4.08008 10 4.08008Z" fill="#9FA0A6"/>
</svg>
