<svg width="36" height="36" viewBox="0 0 36 36" fill="none" xmlns="http://www.w3.org/2000/svg">
<path d="M1.42805 18.1714C1.42806 9.12704 8.78831 1.76677 17.8326 1.76677C26.877 1.76677 34.2372 9.12704 34.2372 18.1714C34.2372 27.2157 26.877 34.576 17.8326 34.576C8.78831 34.576 1.42805 27.2157 1.42805 18.1714ZM7.79315e-07 18.1714C3.48829e-07 28.0197 7.98429 36 17.8286 36C27.673 36 35.6573 28.0157 35.6573 18.1714C35.6573 8.32701 27.673 0.342725 17.8286 0.342725C7.98429 0.342724 1.20962e-06 8.32701 7.79315e-07 18.1714Z" fill="url(#paint0_linear_332_1731)"/>
<path d="M26.9249 14.6908C26.9249 14.8748 26.8569 15.0548 26.7169 15.1948L18.3366 23.5751C18.0566 23.8552 17.6086 23.8552 17.3286 23.5751L8.94829 15.1948C8.66828 14.9148 8.66828 14.4668 8.94829 14.1868C9.2283 13.9068 9.67632 13.9068 9.95633 14.1868L17.8326 22.0631L25.7089 14.1868C25.9889 13.9068 26.4369 13.9068 26.7169 14.1868C26.8569 14.3268 26.9249 14.5068 26.9249 14.6908Z" fill="url(#paint1_linear_332_1731)"/>
<defs>
<linearGradient id="paint0_linear_332_1731" x1="17.8286" y1="0.338724" x2="17.8286" y2="36" gradientUnits="userSpaceOnUse">
<stop stop-color="#5C69FF"/>
<stop offset="1" stop-color="#257FE6"/>
</linearGradient>
<linearGradient id="paint1_linear_332_1731" x1="-115.104" y1="23.7872" x2="-115.104" y2="13.9788" gradientUnits="userSpaceOnUse">
<stop stop-color="#257FE6"/>
<stop offset="1" stop-color="#5C69FF"/>
</linearGradient>
</defs>
</svg>
