<svg width="36" height="36" viewBox="0 0 36 36" fill="none" xmlns="http://www.w3.org/2000/svg">
<path d="M34.2292 18.1714C34.2292 27.2157 26.8689 34.576 17.8246 34.576C8.78027 34.576 1.42001 27.2157 1.42001 18.1714C1.42001 9.12709 8.78027 1.76682 17.8246 1.76682C26.8689 1.76682 34.2292 9.12709 34.2292 18.1714ZM35.6572 18.1714C35.6572 8.32306 27.6729 0.342773 17.8286 0.342773C7.98424 0.342772 -4.99401e-05 8.32706 -5.03704e-05 18.1714C-5.08007e-05 28.0158 7.98424 36 17.8286 36C27.6729 36 35.6572 28.0158 35.6572 18.1714Z" fill="url(#paint0_linear_332_1760)"/>
<path d="M8.73229 21.6519C8.73229 21.4679 8.80029 21.2879 8.9403 21.1479L17.3206 12.7676C17.6006 12.4876 18.0486 12.4876 18.3286 12.7676L26.7089 21.1479C26.9889 21.4279 26.9889 21.876 26.7089 22.156C26.4289 22.436 25.9809 22.436 25.7009 22.156L17.8246 14.2797L9.94834 22.156C9.66833 22.436 9.22031 22.436 8.9403 22.156C8.80029 22.016 8.73229 21.836 8.73229 21.6519Z" fill="url(#paint1_linear_332_1760)"/>
<defs>
<linearGradient id="paint0_linear_332_1760" x1="17.8286" y1="36.004" x2="17.8286" y2="0.342773" gradientUnits="userSpaceOnUse">
<stop stop-color="#5C69FF"/>
<stop offset="1" stop-color="#257FE6"/>
</linearGradient>
<linearGradient id="paint1_linear_332_1760" x1="150.761" y1="12.5556" x2="150.761" y2="22.364" gradientUnits="userSpaceOnUse">
<stop stop-color="#257FE6"/>
<stop offset="1" stop-color="#5C69FF"/>
</linearGradient>
</defs>
</svg>
