<svg width="25" height="25" viewBox="0 0 25 25" fill="none" xmlns="http://www.w3.org/2000/svg">
<path d="M12.5 1.00124C18.8412 1.00124 24.0016 6.16165 24.0016 12.5028C24.0016 18.8439 18.8412 24.0044 12.5 24.0044C6.15885 24.0044 0.998429 18.8439 0.998429 12.5028C0.998429 6.16165 6.15885 1.00124 12.5 1.00124ZM12.5 0C5.59513 0 0 5.59794 0 12.5C0 19.4021 5.59794 25 12.5 25C19.4021 25 25 19.4021 25 12.5C25 5.59794 19.4021 0 12.5 0Z" fill="url(#paint0_linear_337_751)"/>
<path d="M14.9401 18.877C14.811 18.877 14.6848 18.8293 14.5867 18.7312L8.71108 12.8556C8.51476 12.6592 8.51476 12.3451 8.71108 12.1488L14.5867 6.27322C14.783 6.0769 15.0971 6.0769 15.2934 6.27322C15.4898 6.46954 15.4898 6.78366 15.2934 6.97998L9.77122 12.5022L15.2934 18.0244C15.4898 18.2207 15.4898 18.5348 15.2934 18.7312C15.1953 18.8293 15.0691 18.877 14.9401 18.877Z" fill="url(#paint1_linear_337_751)"/>
<defs>
<linearGradient id="paint0_linear_337_751" x1="25.0028" y1="12.5" x2="0" y2="12.5" gradientUnits="userSpaceOnUse">
<stop stop-color="#5C69FF"/>
<stop offset="1" stop-color="#257FE6"/>
</linearGradient>
<linearGradient id="paint1_linear_337_751" x1="8.56244" y1="-80.7023" x2="15.4393" y2="-80.7023" gradientUnits="userSpaceOnUse">
<stop stop-color="#257FE6"/>
<stop offset="1" stop-color="#5C69FF"/>
</linearGradient>
</defs>
</svg>
