<svg width="34" height="34" viewBox="0 0 34 34" fill="none" xmlns="http://www.w3.org/2000/svg">
<path opacity="0.06" d="M33.6377 16.9996C33.6377 7.81239 26.1866 0.361328 16.9994 0.361328C7.81214 0.361328 0.361084 7.81239 0.361084 16.9996C0.361084 26.1869 7.81214 33.6379 16.9994 33.6379C26.1866 33.6379 33.6377 26.1869 33.6377 16.9996Z" fill="url(#paint0_linear_332_1595)"/>
<path opacity="0.12" d="M33.2755 16.9992C33.2755 8.00492 25.9932 0.722656 16.9989 0.722656C8.00456 0.722656 0.72229 8.00492 0.72229 16.9992C0.72229 25.9936 8.00456 33.2758 16.9989 33.2758C25.9932 33.2758 33.2755 25.9936 33.2755 16.9992Z" fill="url(#paint1_linear_332_1595)"/>
<path opacity="0.19" d="M32.9157 16.9979C32.9157 8.19648 25.7781 1.08301 17.0008 1.08301C8.22352 1.08301 1.08594 8.19648 1.08594 16.9979C1.08594 25.7993 8.19941 32.9128 17.0008 32.9128C25.8022 32.9128 32.9157 25.7993 32.9157 16.9979Z" fill="url(#paint2_linear_332_1595)"/>
<path opacity="0.25" d="M32.5536 16.9985C32.5536 8.41411 25.5848 1.44531 17.0004 1.44531C8.41605 1.44531 1.44727 8.41411 1.44727 16.9985C1.44727 25.5829 8.41605 32.5517 17.0004 32.5517C25.5848 32.5517 32.5536 25.5829 32.5536 16.9985Z" fill="url(#paint3_linear_332_1595)"/>
<path opacity="0.31" d="M32.1908 17.0001C32.1908 8.6086 25.3908 1.80859 16.9993 1.80859C8.60786 1.80859 1.80786 8.6086 1.80786 17.0001C1.80786 25.3916 8.60786 32.1916 16.9993 32.1916C25.3908 32.1916 32.1908 25.3916 32.1908 17.0001Z" fill="url(#paint4_linear_332_1595)"/>
<path opacity="0.38" d="M31.8292 17.0017C31.8292 8.80308 25.198 2.17188 16.9995 2.17188C8.80088 2.17188 2.16968 8.80308 2.16968 17.0017C2.16968 25.2002 8.80088 31.8314 16.9995 31.8314C25.198 31.8314 31.8292 25.2002 31.8292 17.0017Z" fill="url(#paint5_linear_332_1595)"/>
<path opacity="0.44" d="M16.9995 31.4674C24.99 31.4674 31.4675 24.9898 31.4675 16.9993C31.4675 9.00883 24.99 2.53125 16.9995 2.53125C9.00895 2.53125 2.53137 9.00883 2.53137 16.9993C2.53137 24.9898 9.00895 31.4674 16.9995 31.4674Z" fill="url(#paint6_linear_332_1595)"/>
<path opacity="0.5" d="M31.1068 16.999C31.1068 9.21031 24.7891 2.89258 17.0004 2.89258C9.21177 2.89258 2.89404 9.21031 2.89404 16.999C2.89404 24.7876 9.21177 31.1053 17.0004 31.1053C24.7891 31.1053 31.1068 24.7876 31.1068 16.999Z" fill="url(#paint7_linear_332_1595)"/>
<path opacity="0.56" d="M30.745 16.9996C30.745 9.40382 24.596 3.25488 17.0003 3.25488C9.40454 3.25488 3.25562 9.40382 3.25562 16.9996C3.25562 24.5953 9.40454 30.7442 17.0003 30.7442C24.596 30.7442 30.745 24.5953 30.745 16.9996Z" fill="url(#paint8_linear_332_1595)"/>
<path opacity="0.62" d="M16.9996 30.3822C24.3908 30.3822 30.3825 24.3904 30.3825 16.9992C30.3825 9.60798 24.3908 3.61621 16.9996 3.61621C9.60834 3.61621 3.61658 9.60798 3.61658 16.9992C3.61658 24.3904 9.60834 30.3822 16.9996 30.3822Z" fill="url(#paint9_linear_332_1595)"/>
<path opacity="0.69" d="M30.0208 16.9998C30.0208 9.81398 24.1854 3.97852 16.9995 3.97852C9.81373 3.97852 3.97827 9.81398 3.97827 16.9998C3.97827 24.1856 9.81373 30.0211 16.9995 30.0211C24.1854 30.0211 30.0208 24.1856 30.0208 16.9998Z" fill="url(#paint10_linear_332_1595)"/>
<path opacity="0.75" d="M29.6592 17.0004C29.6592 10.0075 23.9926 4.34082 16.9997 4.34082C10.0068 4.34082 4.34009 10.0075 4.34009 17.0004C4.34009 23.9933 10.0068 29.66 16.9997 29.66C23.9926 29.66 29.6592 23.9933 29.6592 17.0004Z" fill="url(#paint11_linear_332_1595)"/>
<path opacity="0.81" d="M29.2984 16.9971C29.2984 10.1971 23.8005 4.69922 17.0005 4.69922C10.2005 4.69922 4.70264 10.1971 4.70264 16.9971C4.70264 23.7971 10.2005 29.295 17.0005 29.295C23.8005 29.295 29.2984 23.7971 29.2984 16.9971Z" fill="url(#paint12_linear_332_1595)"/>
<path opacity="0.88" d="M28.9368 16.9987C28.9368 10.4157 23.5836 5.0625 17.0006 5.0625C10.4176 5.0625 5.06445 10.4157 5.06445 16.9987C5.06445 23.5816 10.3935 28.9348 17.0006 28.9348C23.6077 28.9348 28.9368 23.5816 28.9368 16.9987Z" fill="url(#paint13_linear_332_1595)"/>
<path opacity="0.94" d="M28.5745 17.0002C28.5745 10.6102 23.3901 5.42578 17 5.42578C10.6099 5.42578 5.42554 10.6102 5.42554 17.0002C5.42554 23.3903 10.6099 28.5747 17 28.5747C23.3901 28.5747 28.5745 23.3903 28.5745 17.0002Z" fill="url(#paint14_linear_332_1595)"/>
<path d="M28.2121 17.0008C28.2121 10.8037 23.1965 5.78809 16.9994 5.78809C10.8022 5.78809 5.78662 10.8037 5.78662 17.0008C5.78662 23.198 10.8022 28.2136 16.9994 28.2136C23.1965 28.2136 28.2121 23.198 28.2121 17.0008Z" fill="url(#paint15_linear_332_1595)"/>
<path d="M26.8865 21.4372C29.3461 15.9635 26.8865 9.54928 21.4369 7.08971C15.9631 4.63014 9.54892 7.08971 7.08934 12.5394C4.62977 18.0131 7.08935 24.4273 12.539 26.8869C18.0128 29.3464 24.4269 26.8869 26.8865 21.4372Z" fill="url(#paint16_linear_332_1595)"/>
<defs>
<linearGradient id="paint0_linear_332_1595" x1="0.481651" y1="16.2039" x2="33.5412" y2="17.8195" gradientUnits="userSpaceOnUse">
<stop stop-color="white"/>
<stop offset="0.26" stop-color="#FBFBFC"/>
<stop offset="0.5" stop-color="#EFF0F3"/>
<stop offset="0.74" stop-color="#DCDEE4"/>
<stop offset="0.97" stop-color="#C2C6CF"/>
<stop offset="1" stop-color="#BEC2CC"/>
</linearGradient>
<linearGradient id="paint1_linear_332_1595" x1="0.963425" y1="15.4319" x2="33.0585" y2="18.5907" gradientUnits="userSpaceOnUse">
<stop stop-color="white"/>
<stop offset="0.26" stop-color="#FBFBFC"/>
<stop offset="0.5" stop-color="#EFF0F3"/>
<stop offset="0.74" stop-color="#DCDEE4"/>
<stop offset="0.97" stop-color="#C1C5CF"/>
<stop offset="1" stop-color="#BEC2CC"/>
</linearGradient>
<linearGradient id="paint2_linear_332_1595" x1="1.51998" y1="14.7071" x2="32.5299" y2="19.3128" gradientUnits="userSpaceOnUse">
<stop stop-color="white"/>
<stop offset="0.26" stop-color="#FBFBFC"/>
<stop offset="0.5" stop-color="#EFF0F2"/>
<stop offset="0.74" stop-color="#DCDEE3"/>
<stop offset="0.97" stop-color="#C1C5CE"/>
<stop offset="1" stop-color="#BEC2CC"/>
</linearGradient>
<linearGradient id="paint3_linear_332_1595" x1="2.07422" y1="14.0325" x2="31.9749" y2="19.9886" gradientUnits="userSpaceOnUse">
<stop stop-color="white"/>
<stop offset="0.25" stop-color="#FBFBFB"/>
<stop offset="0.5" stop-color="#EFF0F2"/>
<stop offset="0.74" stop-color="#DCDEE3"/>
<stop offset="0.98" stop-color="#C1C5CE"/>
<stop offset="1" stop-color="#BEC2CC"/>
</linearGradient>
<linearGradient id="paint4_linear_332_1595" x1="2.65183" y1="13.4072" x2="31.3951" y2="20.6171" gradientUnits="userSpaceOnUse">
<stop stop-color="white"/>
<stop offset="0.25" stop-color="#FBFBFB"/>
<stop offset="0.5" stop-color="#EFF0F2"/>
<stop offset="0.74" stop-color="#DCDEE3"/>
<stop offset="0.98" stop-color="#C0C4CE"/>
<stop offset="1" stop-color="#BEC2CC"/>
</linearGradient>
<linearGradient id="paint5_linear_332_1595" x1="3.25478" y1="12.83" x2="30.7924" y2="21.1974" gradientUnits="userSpaceOnUse">
<stop stop-color="white"/>
<stop offset="0.25" stop-color="#FBFBFB"/>
<stop offset="0.5" stop-color="#EFF0F2"/>
<stop offset="0.74" stop-color="#DBDDE3"/>
<stop offset="0.98" stop-color="#C0C4CD"/>
<stop offset="1" stop-color="#BEC2CC"/>
</linearGradient>
<linearGradient id="paint6_linear_332_1595" x1="3.88173" y1="12.3213" x2="30.1895" y2="21.7256" gradientUnits="userSpaceOnUse">
<stop stop-color="white"/>
<stop offset="0.25" stop-color="#FBFBFB"/>
<stop offset="0.5" stop-color="#EFF0F2"/>
<stop offset="0.74" stop-color="#DBDDE3"/>
<stop offset="0.98" stop-color="#C0C3CD"/>
<stop offset="1" stop-color="#BEC2CC"/>
</linearGradient>
<linearGradient id="paint7_linear_332_1595" x1="4.53376" y1="11.8387" x2="29.5394" y2="22.2075" gradientUnits="userSpaceOnUse">
<stop stop-color="white"/>
<stop offset="0.25" stop-color="#FBFBFB"/>
<stop offset="0.5" stop-color="#EFF0F2"/>
<stop offset="0.74" stop-color="#DBDDE3"/>
<stop offset="0.99" stop-color="#BFC3CD"/>
<stop offset="1" stop-color="#BEC2CC"/>
</linearGradient>
<linearGradient id="paint8_linear_332_1595" x1="5.16058" y1="11.4052" x2="28.9123" y2="22.6421" gradientUnits="userSpaceOnUse">
<stop stop-color="white"/>
<stop offset="0.25" stop-color="#FBFBFB"/>
<stop offset="0.5" stop-color="#EFF0F2"/>
<stop offset="0.74" stop-color="#DBDDE2"/>
<stop offset="0.99" stop-color="#BFC3CD"/>
<stop offset="1" stop-color="#BEC2CC"/>
</linearGradient>
<linearGradient id="paint9_linear_332_1595" x1="5.83502" y1="11.0432" x2="28.2606" y2="23.0276" gradientUnits="userSpaceOnUse">
<stop stop-color="white"/>
<stop offset="0.25" stop-color="#FAFBFB"/>
<stop offset="0.5" stop-color="#EEEFF2"/>
<stop offset="0.75" stop-color="#DADDE2"/>
<stop offset="0.99" stop-color="#BEC2CC"/>
<stop offset="1" stop-color="#BEC2CC"/>
</linearGradient>
<linearGradient id="paint10_linear_332_1595" x1="6.48607" y1="10.7062" x2="27.5854" y2="23.3657" gradientUnits="userSpaceOnUse">
<stop stop-color="white"/>
<stop offset="0.25" stop-color="#FAFBFB"/>
<stop offset="0.5" stop-color="#EEEFF2"/>
<stop offset="0.75" stop-color="#DADCE2"/>
<stop offset="1" stop-color="#BEC2CC"/>
</linearGradient>
<linearGradient id="paint11_linear_332_1595" x1="7.13725" y1="10.4174" x2="26.9344" y2="23.6316" gradientUnits="userSpaceOnUse">
<stop stop-color="white"/>
<stop offset="0.25" stop-color="#FAFBFB"/>
<stop offset="0.5" stop-color="#EEEFF2"/>
<stop offset="0.75" stop-color="#DADCE2"/>
<stop offset="1" stop-color="#BEC2CC"/>
</linearGradient>
<linearGradient id="paint12_linear_332_1595" x1="7.81328" y1="10.173" x2="26.2842" y2="23.8694" gradientUnits="userSpaceOnUse">
<stop stop-color="white"/>
<stop offset="0.25" stop-color="#FAFBFB"/>
<stop offset="0.5" stop-color="#EEEFF2"/>
<stop offset="0.75" stop-color="#DADCE2"/>
<stop offset="1" stop-color="#BEC2CC"/>
</linearGradient>
<linearGradient id="paint13_linear_332_1595" x1="8.46445" y1="10.0058" x2="25.6332" y2="24.088" gradientUnits="userSpaceOnUse">
<stop stop-color="white"/>
<stop offset="0.24" stop-color="#FAFBFB"/>
<stop offset="0.5" stop-color="#EEEFF2"/>
<stop offset="0.75" stop-color="#D9DCE1"/>
<stop offset="1" stop-color="#BEC2CC"/>
</linearGradient>
<linearGradient id="paint14_linear_332_1595" x1="9.1149" y1="9.86266" x2="24.9816" y2="24.2343" gradientUnits="userSpaceOnUse">
<stop stop-color="white"/>
<stop offset="0.24" stop-color="#FAFBFB"/>
<stop offset="0.5" stop-color="#EEEFF1"/>
<stop offset="0.75" stop-color="#D9DCE1"/>
<stop offset="1" stop-color="#BEC2CC"/>
</linearGradient>
<linearGradient id="paint15_linear_332_1595" x1="9.74123" y1="9.74269" x2="24.3299" y2="24.3313" gradientUnits="userSpaceOnUse">
<stop stop-color="white"/>
<stop offset="0.24" stop-color="#FAFBFB"/>
<stop offset="0.5" stop-color="#EEEFF1"/>
<stop offset="0.75" stop-color="#D9DBE1"/>
<stop offset="1" stop-color="#BEC2CC"/>
</linearGradient>
<linearGradient id="paint16_linear_332_1595" x1="0.0240938" y1="-9.47625" x2="22.7631" y2="26.0188" gradientUnits="userSpaceOnUse">
<stop stop-color="#BEC2CC"/>
<stop offset="0.28" stop-color="#CBCED6"/>
<stop offset="0.79" stop-color="#EEEFF2"/>
<stop offset="1" stop-color="white"/>
</linearGradient>
</defs>
</svg>
