<svg width="104" height="91" viewBox="0 0 104 91" fill="none" xmlns="http://www.w3.org/2000/svg">
<circle cx="36.8652" cy="36.0026" r="13.3757" fill="url(#paint0_linear_0_1)"/>
<path d="M41.1795 20.0379H32.1189L36.4334 10.5459L41.1795 20.0379Z" fill="url(#paint1_linear_0_1)"/>
<path d="M51.968 40.3174L51.968 31.2568L61.46 35.5714L51.968 40.3174Z" fill="url(#paint2_linear_0_1)"/>
<path d="M20.0367 31.2578L20.0367 40.3184L10.5447 36.0038L20.0367 31.2578Z" fill="url(#paint3_linear_0_1)"/>
<path d="M32.1196 51.9689L41.1802 51.9689L36.8656 61.4609L32.1196 51.9689Z" fill="url(#paint4_linear_0_1)"/>
<path d="M50.9525 28.3735L44.5457 21.9667L54.3084 18.3057L50.9525 28.3735Z" fill="url(#paint5_linear_0_1)"/>
<path d="M44.2407 50.3424L50.6475 43.9356L54.3085 53.6983L44.2407 50.3424Z" fill="url(#paint6_linear_0_1)"/>
<path d="M28.0686 21.3578L21.6618 27.7646L18.0008 18.0019L28.0686 21.3578Z" fill="url(#paint7_linear_0_1)"/>
<path d="M21.9672 44.5464L28.374 50.9532L18.6113 54.6142L21.9672 44.5464Z" fill="url(#paint8_linear_0_1)"/>
<path d="M27 65C13.176 65 3.24 82.3333 0 91H54C50.76 82.3333 40.824 65 27 65Z" fill="url(#paint9_linear_0_1)"/>
<path d="M52 51C38.176 51 28.24 77.6667 25 91H79C75.76 77.6667 65.824 51 52 51Z" fill="url(#paint10_linear_0_1)"/>
<path d="M86.7739 81.856C86.3895 83.5744 85.877 84.5391 86.0918 86.2198C86.2124 87.1995 86.5854 88.428 87.3843 90.1879C87.3843 90.1879 86.4422 90.9076 83.7365 90.9076C81.0308 90.9076 80.5673 89.7696 80.5673 89.7696C80.5673 89.7696 82.6512 86.7398 81.6677 83.7892C80.6804 80.8347 77.8428 78.4833 76.9346 76.1016C76.0264 73.7125 76.5917 73.3356 75.0014 71.8961C73.4149 70.4566 72.2769 68.791 72.2769 68.791L73.072 68.448C73.072 68.448 74.3608 70.1513 75.6119 70.8749C75.6119 70.8749 75.0052 68.5535 74.3796 67.9318L75.2313 67.6454C75.2313 67.6454 76.1395 68.0147 76.8781 71.4514C77.6129 74.8882 78.1254 75.8831 80.2018 77.6128C80.2018 77.609 80.2018 77.609 80.2018 77.6052C80.1603 77.462 79.4858 75.1181 79.1542 72.6724C78.8112 70.1438 76.9949 67.359 76.9949 67.359L77.5903 66.8239C77.5903 66.8239 78.9544 68.0712 79.5197 70.2606C79.5197 70.2606 79.9192 68.6138 79.32 66.9068L80.3148 66.707C80.3148 66.707 80.6578 68.1013 80.6578 71.4778C80.6578 74.8543 82.9866 79.8286 82.9866 79.8286C82.9866 79.8286 84.0945 73.1284 83.4727 70.4566L85.6886 70.4001C85.6886 70.4001 86.2538 76.1921 85.8581 80.2243C85.8581 80.2243 87.5803 78.1026 87.4672 74.583H88.3754C88.3754 74.583 88.7937 76.2071 88.1493 77.9142C88.2435 77.8313 89.7207 76.4898 90.384 75.721L90.9116 76.5538C90.9116 76.5538 87.3881 79.1277 86.7814 81.856H86.7739Z" fill="#884A33"/>
<path d="M87.3804 90.188C87.3804 90.188 86.4383 90.9078 83.7326 90.9078C81.0269 90.9078 80.5634 89.7697 80.5634 89.7697C80.5634 89.7697 82.6473 86.74 81.6638 83.7893C80.6765 80.8349 77.8389 78.4834 76.9307 76.1018C76.0225 73.7126 76.5878 73.3358 74.9975 71.8963C73.411 70.4567 72.2729 68.7911 72.2729 68.7911L73.0681 68.4482C73.0681 68.4482 74.3569 70.1515 75.608 70.875C75.608 70.875 75.0013 68.5537 74.3757 67.9319L75.2274 67.6455C75.2274 67.6455 76.1356 68.0148 76.8742 71.4516C77.609 74.8884 78.1215 75.8832 80.1979 77.6129C82.9149 81.5961 82.2705 81.5207 83.7628 84.332C84.4072 85.5491 85.2927 86.0428 86.0954 86.2161C86.216 87.1959 86.5891 88.4244 87.388 90.1843L87.3804 90.188Z" fill="#65352B"/>
<path d="M101.433 70.0798C101.433 70.0798 100.144 64.1333 94.5027 65.799C94.5027 65.799 90.9038 63.0706 86.2084 64.74C81.513 66.4057 77.2321 71.5571 84.0491 75.495C90.8662 79.433 103.249 76.9346 103.743 73.7163C104.236 70.4981 101.433 70.0798 101.433 70.0798Z" fill="#5F8B1C"/>
<path d="M100.868 68.6068C100.868 68.6068 99.7785 63.5722 94.9964 64.9816C94.9964 64.9816 91.9478 62.6715 87.9721 64.0847C83.9965 65.4941 80.3713 69.8579 86.1445 73.1929C91.9177 76.5279 102.405 74.4101 102.823 71.6855C103.242 68.961 100.868 68.6068 100.868 68.6068Z" fill="#83B20E"/>
<path d="M100.544 67.6753C100.544 67.6753 99.6694 63.4547 95.8369 64.638C95.8369 64.638 93.3912 62.7048 90.2032 63.8843C87.0113 65.0676 84.1059 68.7229 88.7373 71.5153C93.3686 74.3114 101.783 72.5365 102.115 70.2529C102.45 67.9692 100.547 67.6715 100.547 67.6715L100.544 67.6753Z" fill="#85AF0F"/>
<path d="M99.5259 65.878C99.5259 65.878 98.9456 63.0857 96.4094 63.8695C96.4094 63.8695 94.7928 62.5882 92.6787 63.3721C90.5684 64.1559 88.6428 66.5752 91.7065 68.4255C94.774 70.2758 100.34 69.1 100.562 67.5889C100.785 66.0778 99.5221 65.8818 99.5221 65.8818L99.5259 65.878Z" fill="#9CCD12"/>
<path d="M79.825 49.1541C79.825 49.1541 73.2341 50.0058 70.7922 56.0277C68.3503 62.0496 74.8809 59.2082 78.3478 60.9718C81.8147 62.7317 83.3485 67.2198 89.4269 62.5056C95.5053 57.7913 86.3594 48.1329 79.825 49.1541Z" fill="#5F8B1C"/>
<path d="M80.6691 49.0144C80.6691 49.0144 75.9284 49.3799 74.1723 51.95C72.4163 54.5238 77.1155 53.3104 79.6064 54.0603C82.0973 54.8102 83.9928 58.8273 88.3641 56.815C92.7392 54.8027 86.7437 48.664 80.6691 49.0144Z" fill="#83B20E"/>
<path d="M82.1084 49.1501C82.1084 49.1501 79.203 49.3725 78.1252 50.9514C77.0475 52.5266 79.9265 51.7843 81.4565 52.244C82.9827 52.7037 84.1434 55.1645 86.8227 53.9322C89.502 52.6962 85.8278 48.9391 82.1084 49.1501Z" fill="#9CCD12"/>
<path d="M73.5768 54.8361C73.5768 54.8361 67.0424 55.9741 64.8266 60.5753C62.6108 65.1766 64.7701 70.2337 72.2692 70.3091C79.7683 70.3845 86.8491 66.7857 86.5853 63.1529C86.3215 59.5202 83.8193 53.6076 73.5768 54.8399V54.8361Z" fill="#83B20E"/>
<path d="M72.9475 55.0094C72.9475 55.0094 68.644 55.7593 67.1857 58.7891C65.7273 61.8189 67.148 65.1502 72.0883 65.1992C77.0287 65.2481 81.6902 62.8778 81.5169 60.4849C81.3435 58.092 79.6967 54.1992 72.9475 55.0094Z" fill="#85AF0F"/>
<path d="M71.4478 55.7635C71.4478 55.7635 69.0699 56.1781 68.2635 57.8512C67.4571 59.5244 68.2446 61.3671 70.973 61.3935C73.7013 61.4199 76.2789 60.1123 76.1809 58.7896C76.0829 57.4669 75.1747 55.3151 71.4478 55.7635Z" fill="#9CCD12"/>
<path d="M90.1689 59.3064C90.1689 59.3064 85.8616 60.0563 84.4032 63.0899C82.9411 66.1235 84.3656 69.4547 89.3097 69.5075C94.2538 69.5602 98.9191 67.1861 98.7457 64.7894C98.5724 62.3927 96.9218 58.5 90.1689 59.3102V59.3064Z" fill="#83B20E"/>
<path d="M91.4126 59.4412C91.4126 59.4412 88.5712 59.9348 87.6065 61.9396C86.6418 63.9406 87.5801 66.1414 90.8436 66.1753C94.107 66.2092 97.1895 64.6416 97.0727 63.0588C96.9559 61.4761 95.8706 58.9061 91.4126 59.4412Z" fill="#85AF0F"/>
<path d="M92.0834 59.4072C92.0834 59.4072 90.5836 59.6672 90.0748 60.7261C89.5661 61.7851 90.0635 62.942 91.7819 62.9608C93.5041 62.9796 95.1282 62.1506 95.068 61.3178C95.0077 60.4812 94.4349 59.1246 92.0796 59.4072H92.0834Z" fill="#9CCD12"/>
<defs>
<linearGradient id="paint0_linear_0_1" x1="36.8652" y1="22.627" x2="36.8652" y2="49.3783" gradientUnits="userSpaceOnUse">
<stop stop-color="#FFCC00"/>
<stop offset="0.705" stop-color="#F59C21"/>
<stop offset="1" stop-color="#E96E11"/>
</linearGradient>
<linearGradient id="paint1_linear_0_1" x1="36.6492" y1="10.5459" x2="36.6492" y2="20.0379" gradientUnits="userSpaceOnUse">
<stop stop-color="#FFCC00"/>
<stop offset="0.705" stop-color="#F59C21"/>
<stop offset="1" stop-color="#E96E11"/>
</linearGradient>
<linearGradient id="paint2_linear_0_1" x1="61.46" y1="35.7871" x2="51.968" y2="35.7871" gradientUnits="userSpaceOnUse">
<stop stop-color="#FFCC00"/>
<stop offset="0.705" stop-color="#F59C21"/>
<stop offset="1" stop-color="#E96E11"/>
</linearGradient>
<linearGradient id="paint3_linear_0_1" x1="10.5447" y1="35.7881" x2="20.0367" y2="35.7881" gradientUnits="userSpaceOnUse">
<stop stop-color="#FFCC00"/>
<stop offset="0.705" stop-color="#F59C21"/>
<stop offset="1" stop-color="#E96E11"/>
</linearGradient>
<linearGradient id="paint4_linear_0_1" x1="36.6499" y1="61.4609" x2="36.6499" y2="51.9689" gradientUnits="userSpaceOnUse">
<stop stop-color="#FFCC00"/>
<stop offset="0.705" stop-color="#F59C21"/>
<stop offset="1" stop-color="#E96E11"/>
</linearGradient>
<linearGradient id="paint5_linear_0_1" x1="54.461" y1="18.4583" x2="47.7491" y2="25.1701" gradientUnits="userSpaceOnUse">
<stop stop-color="#FFCC00"/>
<stop offset="0.705" stop-color="#F59C21"/>
<stop offset="1" stop-color="#E96E11"/>
</linearGradient>
<linearGradient id="paint6_linear_0_1" x1="54.156" y1="53.8509" x2="47.4441" y2="47.139" gradientUnits="userSpaceOnUse">
<stop stop-color="#FFCC00"/>
<stop offset="0.705" stop-color="#F59C21"/>
<stop offset="1" stop-color="#E96E11"/>
</linearGradient>
<linearGradient id="paint7_linear_0_1" x1="18.1533" y1="17.8493" x2="24.8652" y2="24.5612" gradientUnits="userSpaceOnUse">
<stop stop-color="#FFCC00"/>
<stop offset="0.705" stop-color="#F59C21"/>
<stop offset="1" stop-color="#E96E11"/>
</linearGradient>
<linearGradient id="paint8_linear_0_1" x1="18.4587" y1="54.4616" x2="25.1706" y2="47.7498" gradientUnits="userSpaceOnUse">
<stop stop-color="#FFCC00"/>
<stop offset="0.705" stop-color="#F59C21"/>
<stop offset="1" stop-color="#E96E11"/>
</linearGradient>
<linearGradient id="paint9_linear_0_1" x1="27" y1="65" x2="27" y2="91" gradientUnits="userSpaceOnUse">
<stop stop-color="#5DC64B"/>
<stop offset="0.77" stop-color="#3D8B27"/>
<stop offset="1" stop-color="#A2592C"/>
</linearGradient>
<linearGradient id="paint10_linear_0_1" x1="52" y1="51" x2="52" y2="91" gradientUnits="userSpaceOnUse">
<stop stop-color="#5DC64B"/>
<stop offset="0.77" stop-color="#3D8B27"/>
<stop offset="1" stop-color="#A2592C"/>
</linearGradient>
</defs>
</svg>
