<svg width="132" height="125" viewBox="0 0 132 125" fill="none" xmlns="http://www.w3.org/2000/svg">
<g style="mix-blend-mode:multiply" opacity="0.31">
<path d="M20.9354 65.875C20.9354 65.875 9.328 70.9942 6.38481 72.2706C-0.229104 75.1345 -2.21328 75.7496 2.85959 79.546C5.7168 81.6889 68.6614 117.206 68.6614 117.206C68.6614 117.206 74.9512 120.109 86.8563 124.957C89.7267 126.128 119.926 107.1 130.726 99.1628C133.696 96.9802 121.249 93.2103 114.985 89.1626C102.921 81.3582 20.9354 65.875 20.9354 65.875Z" fill="#231F20"/>
</g>
<path d="M21.8283 70.783C21.8283 70.783 17.6549 71.8809 15.8427 73.7791C13.8651 75.8426 13.7262 79.0504 14.9167 82.5491C16.1073 86.0479 18.2634 88.5744 20.3666 89.9435C22.4698 91.3126 24.2622 91.2596 25.3866 90.8297C26.9144 90.2411 30.1354 88.4487 30.1354 88.4487C30.1354 88.4487 31.0348 87.8535 31.5706 86.4117C31.8219 85.737 31.9476 84.8772 31.941 83.8058C31.9277 81.3057 31.0944 77.2051 27.9197 73.5278C25.0294 70.1745 21.8283 70.7764 21.8283 70.7764V70.783Z" fill="#0B1E26"/>
<path d="M20.7833 77.8324C22.622 79.3602 23.786 82.3166 23.958 84.3074C24.1035 85.9873 23.6405 87.1183 22.4963 87.6077C21.3587 88.1038 18.991 87.0059 17.6351 84.7042C16.2726 82.4092 15.9684 80.1935 16.147 78.9237C16.3256 77.7001 17.6153 75.2 20.7767 77.8258L20.7833 77.8324Z" fill="white"/>
<g opacity="0.26">
<path d="M26.2397 85.737C25.9685 82.6351 24.1497 78.0186 21.2793 75.6376C17.6416 72.615 15.5913 73.9378 14.6521 75.6111C13.8717 77.5358 14.0304 79.9631 14.9035 82.5491C16.094 86.0479 18.2501 88.5744 20.3533 89.9435C21.3983 90.6247 22.3706 90.9554 23.2171 91.0612C23.4883 91.0414 23.733 90.9818 23.9513 90.8892C25.7304 90.1154 26.458 88.3561 26.2265 85.737H26.2397Z" fill="white"/>
</g>
<path d="M21.0544 81.7548C21.438 82.846 21.1801 83.9241 20.4856 84.1754C19.7846 84.4202 18.9115 83.7323 18.5279 82.641C18.1443 81.5497 18.4023 80.465 19.0967 80.2203C19.7912 79.9756 20.6708 80.6635 21.0544 81.7548Z" fill="#2D98DA"/>
<path d="M38.793 47.4418C38.998 47.3228 39.2758 47.336 39.58 47.5146L119.853 94.7776C120.462 95.1281 120.951 95.9879 120.951 96.689L120.977 97.9126C120.977 98.2631 120.852 98.5078 120.653 98.6269L88.7412 117.338C88.9397 117.225 89.0984 116.101 89.0984 115.75V115.387C89.105 114.685 88.609 113.826 88.0005 113.475L7.72083 66.2055C7.41659 66.0269 7.13881 66.0137 6.93378 66.1327L38.7864 47.4418H38.793Z" fill="#404C4C"/>
<path d="M7.72088 66.2048C7.1124 65.8542 6.60974 66.1386 6.60974 66.8397L6.6362 68.0567C6.6362 68.7578 7.13224 69.6242 7.74072 69.9747L88.0138 117.238C88.6222 117.588 89.1183 117.297 89.1183 116.603L89.0918 115.379C89.0918 114.678 88.6024 113.818 87.9873 113.468L7.72088 66.2048Z" fill="#253A3A"/>
<path d="M70.9101 98.0645C70.9101 98.0645 66.7368 99.1624 64.9245 101.061C62.947 103.124 62.8081 106.332 63.9986 109.831C65.1891 113.329 67.3452 115.856 69.4485 117.225C71.5517 118.594 73.344 118.541 74.4684 118.111C75.9962 117.523 79.2172 115.73 79.2172 115.73C79.2172 115.73 80.1167 115.135 80.6524 113.7C80.9038 113.025 81.0294 112.165 81.0228 111.094C81.0096 108.594 80.1762 104.493 77.0015 100.816C74.1113 97.4626 70.9101 98.0645 70.9101 98.0645Z" fill="#0B1E26"/>
<path d="M69.8651 105.121C71.7038 106.649 72.8678 109.605 73.0398 111.596C73.1853 113.276 72.7223 114.4 71.5781 114.896C70.4405 115.392 68.0727 114.295 66.7169 112C65.3544 109.705 65.0502 107.489 65.2288 106.219C65.4073 104.989 66.6971 102.495 69.8585 105.121H69.8651Z" fill="white"/>
<g opacity="0.26">
<path d="M75.3282 113.019C75.0571 109.917 73.2382 105.301 70.3744 102.92C66.7368 99.8972 64.6865 101.22 63.7473 102.893C62.9668 104.818 63.1256 107.245 63.9986 109.831C65.1891 113.33 67.3452 115.857 69.4485 117.226C70.4935 117.907 71.4657 118.238 72.3123 118.343C72.5835 118.324 72.8282 118.264 73.0464 118.171C74.8256 117.398 75.5531 115.638 75.3216 113.019H75.3282Z" fill="white"/>
</g>
<path d="M70.1363 109.044C70.5199 110.135 70.262 111.22 69.5675 111.465C68.8665 111.709 67.9934 111.021 67.6098 109.93C67.2262 108.839 67.4842 107.754 68.1786 107.509C68.8731 107.265 69.7527 107.953 70.1363 109.037V109.044Z" fill="#2D98DA"/>
<path d="M59.5938 53.2357L5.92849 23.3209C5.30678 22.9638 5.60441 22.104 6.08723 21.8262C6.08723 21.8262 32.5759 6.68035 43.6146 0.271466C44.018 0.0399795 44.8249 -0.257646 45.8501 0.403745L98.0669 31.1584C99.5021 31.9455 100.163 33.5857 100.157 34.9945L96.3936 79.9426L61.7433 100.115V57.0783L59.6004 53.2423L59.5938 53.2357Z" fill="#C7D6DF"/>
<g opacity="0.4">
<path d="M96.3935 79.9355L100.157 34.9874C100.157 34.6964 100.111 34.3921 100.044 34.0879L64.5475 52.3886C64.5475 52.3886 61.4191 54.1611 59.0778 52.9177C59.0778 52.9177 61.7432 56.0924 61.7366 57.0778V100.115L96.3869 79.9421L96.3935 79.9355Z" fill="white"/>
</g>
<path d="M59.1175 52.8057L6.2988 23.2283C5.20751 22.5669 6.08716 21.8262 6.08716 21.8262C4.83713 22.514 4.84374 23.3341 4.84374 24.2535L4.71808 66.609L61.7366 100.108L61.7895 53.3084H61.7366C61.7366 53.3084 60.3344 53.4803 59.1175 52.8057Z" fill="#9DAAB3"/>
<path d="M4.77765 68.1309V70.459L7.97878 72.3109C8.18381 72.4299 8.34916 72.3373 8.35577 72.0992V70.6309C8.35577 70.3928 8.19704 70.1084 7.9854 69.9894L4.77765 68.1375V68.1309Z" fill="#B23606"/>
<path d="M6.60968 67.0652L6.59645 68.0242L8.98407 69.3999C9.18911 69.519 9.35445 69.81 9.35445 70.0481V71.5098C9.35445 71.6288 9.30816 71.7082 9.24202 71.7479L8.24993 72.3299C8.31607 72.2902 8.36237 72.2042 8.36237 72.0852V70.6169C8.36237 70.3788 8.20363 70.0944 7.99199 69.9753L4.78424 68.1234L6.61629 67.0586L6.60968 67.0652Z" fill="#F94C08"/>
<path d="M9.18248 24.8421L6.29881 23.2283C5.20752 22.5669 6.08717 21.8262 6.08717 21.8262C4.83714 22.514 4.84375 23.3341 4.84375 24.2535V66.609L9.17586 69.4265V24.8421H9.18248Z" fill="#8295A0"/>
<path d="M99.0722 31.9648C99.2309 32.1368 100.613 34.0813 97.9941 35.1395L96.3605 35.9795V80.2332L100.157 78.044V34.9874C100.157 32.8247 99.0457 31.9384 99.0722 31.9715V31.9648Z" fill="#9DB4BF"/>
<path d="M102.26 48.6854C103.973 47.8388 105.335 48.2092 106.03 48.6126L113.649 53.0506C117.141 55.0678 120.071 57.7729 121.864 63.8246C121.864 63.8246 125.64 76.2389 125.977 88.0381C125.977 88.0381 127.472 88.8384 127.499 90.1414C127.538 92.152 127.499 95.5912 127.499 95.5912C127.499 96.9801 125.263 98.6402 124.059 99.3281L88.2848 119.95L88.0533 110.314C88.0599 107.966 86.7901 106.081 86.5718 99.0371L80.5531 81.6028C78.655 77.1252 78.0862 74.6119 74.5874 72.588L67.6229 71.0139C66.9285 70.6105 67.5171 68.7784 67.0674 69.043L102.273 48.6721L102.26 48.6854Z" fill="#C6D9E0"/>
<path d="M72.7752 101.477C71.9154 100.677 70.9167 100.088 68.2711 98.296C67.1137 97.5155 66.3134 96.3052 66.3134 94.9097V70.6631C66.3266 69.0691 67.4444 68.4342 68.8333 69.2345L77.6761 74.1221C81.1749 76.1394 84.7265 78.8114 86.1551 85.6303C86.7438 88.7521 87.3853 90.7164 87.7028 99.05C87.8351 102.483 88.6949 105.988 88.9131 109.659C88.9528 110.353 89.6076 110.75 89.5944 112.542L89.6142 117.569C89.6142 119.864 87.5904 120.439 86.3139 119.692L79.2502 115.684C78.5888 115.3 78.1986 114.619 77.987 113.892C76.5782 109.097 77.6034 105.988 72.762 101.484L72.7752 101.477Z" fill="#7DA3AA"/>
<path d="M73.053 85.3799C70.9961 83.4354 70.4868 83.647 70.4868 80.8692V74.5992C70.4868 73.0912 70.758 72.8597 72.0411 73.4087L76.5253 75.7434C80.3283 77.8532 83.3443 81.5107 84.0784 85.8164C84.9977 91.2332 85.0705 92.6684 85.0705 92.6684C85.2689 95.3007 83.4369 95.228 82.2397 94.0904L73.0464 85.3799H73.053Z" fill="#17394B"/>
<path d="M88.5428 88.6931C87.6169 82.8597 86.3007 79.9562 85.8311 79.2154C85.388 78.5143 85.5666 77.5685 86.2941 77.1651L116.764 60.3393C117.558 59.9028 119.086 59.1488 120.078 61.6621C120.997 63.8381 122.201 67.7072 122.929 71.8673C123.392 74.5129 123.59 75.3793 121.672 76.5698L91.4662 93.7925C89.7465 94.8507 89.2571 94.1562 89.0852 92.8665L88.556 88.6931H88.5428Z" fill="#376F82"/>
<path d="M127.492 90.1484C127.479 89.5399 127.148 89.0505 126.804 88.6934C124.251 90.0095 120.184 92.1524 121.004 92.0202C122.393 91.8019 122.327 93.7265 122.327 93.7265C122.327 93.7265 122.194 96.8285 121.93 98.4952C121.665 100.149 120.792 100.889 120.21 101.471L124.053 99.3285C125.257 98.6407 127.492 96.9806 127.492 95.5917C127.492 95.5917 127.532 92.1524 127.492 90.1418V90.1484Z" fill="#2D98DA"/>
<path d="M66.3597 88.8057L66.32 88.8718V90.6245C69.3492 92.4102 80.2754 98.7596 84.7927 100.182C85.8046 100.499 86.8033 100.664 87.9806 100.664C88.0401 100.664 88.0996 100.664 88.1591 100.664C88.1062 100.129 88.0467 99.593 87.9872 99.0705C86.9753 99.0705 86.1154 98.9316 85.2755 98.667C80.2952 97.0995 66.5052 88.885 66.3663 88.8057H66.3597Z" fill="#65888C"/>
<path d="M96.4067 105.883C96.4067 105.883 96.2017 98.5941 94.2374 98.8917C89.8656 99.5531 87.9806 99.0636 87.9806 99.0636C87.9806 99.0636 87.8616 105.036 87.8616 108.012C87.8616 109.95 88.5097 109.699 88.5097 109.699C88.5097 109.699 94.8194 107.265 96.4067 105.869V105.883Z" fill="white"/>
<g opacity="0.32">
<path d="M120.7 76.8203C120.7 76.8203 121.626 89.4926 121.262 91.0799C120.898 92.6672 121.89 91.027 121.89 91.027C121.89 91.027 121.54 81.1392 120.7 76.8203Z" fill="#2D98DA"/>
</g>
<path d="M125.971 88.045C125.892 85.287 125.627 82.5025 125.263 79.8438C124.661 81.1996 123.471 82.9787 122.294 84.1692C121.817 84.6521 121.381 85.6045 121.473 86.6561C121.599 88.0979 121.553 91.0279 121.553 91.0279C122.241 91.1139 124.403 89.3744 126.057 88.0913C126.011 88.0648 125.978 88.045 125.978 88.045H125.971Z" fill="white"/>
<g opacity="0.32">
<path d="M92.3854 92.9648C92.3854 92.9648 94.9318 96.5496 96.162 101.365C96.7109 103.501 96.8101 105.637 96.8101 105.637L96.4133 105.888C96.4133 105.888 96.162 101.193 94.826 98.0906C93.7347 95.5575 92.3921 92.9715 92.3921 92.9715L92.3854 92.9648Z" fill="#2D98DA"/>
</g>
<path d="M120.349 97.8264C120.382 98.1438 120.164 98.6994 119.886 98.8581L113.768 102.383C113.49 102.542 113.246 102.416 113.219 102.033L113.08 100.247C113.001 99.9164 113.272 99.4137 113.55 99.2484L119.489 95.829C119.767 95.6702 120.243 95.7827 120.296 96.1861L120.349 97.8264Z" fill="#2D98DA"/>
<path d="M107.617 104.638C107.73 105.439 107.459 105.842 107.181 106.001L101.387 109.301C101.109 109.46 100.534 109.625 100.296 109.268L99.6806 108.269C99.178 107.595 99.3301 107.152 99.9319 106.834L106.572 103.064C106.85 102.906 107.326 103.018 107.379 103.421L107.617 104.625V104.638Z" fill="#2D98DA"/>
<path d="M114.264 77.2238C114.304 77.1709 114.383 77.1444 114.469 77.1577C114.555 77.1643 114.661 77.204 114.76 77.2767C114.952 77.4156 115.045 77.6206 114.965 77.7331L111.46 82.6406C111.539 82.5282 111.453 82.3297 111.262 82.1909C111.169 82.1247 111.063 82.085 110.971 82.0718C110.885 82.0652 110.805 82.085 110.766 82.1379L114.271 77.2304L114.264 77.2238Z" fill="#2D98DA"/>
<path d="M114.489 77.3232C114.529 77.2703 114.608 77.2505 114.694 77.2571C114.78 77.2571 114.886 77.3034 114.985 77.3695C115.177 77.5084 115.27 77.7134 115.19 77.8193L111.685 82.7268C111.764 82.6144 111.678 82.4159 111.48 82.277C111.387 82.2043 111.281 82.1712 111.189 82.158C111.103 82.1514 111.023 82.1712 110.984 82.2241L114.489 77.3166V77.3232Z" fill="#8A968A"/>
<path d="M121.797 72.3298C121.85 72.2968 121.903 72.2901 121.943 72.31L122.585 72.6341C122.545 72.6142 122.499 72.6208 122.439 72.6539L114.516 77.654L114.542 78.1236L113.9 77.7929L113.874 77.3299L121.797 72.3298Z" fill="#122C33"/>
<path d="M114.509 77.6546L114.535 78.1242L122.459 73.1241C122.565 73.0513 122.644 72.8926 122.637 72.7603C122.631 72.628 122.538 72.5817 122.426 72.6545L114.502 77.6546H114.509Z" fill="#2D98DA"/>
<path d="M111.572 81.9202C111.195 82.1914 110.931 82.7866 110.984 83.2496C111.03 83.7125 111.374 83.8647 111.751 83.5869C112.128 83.3157 112.393 82.7205 112.346 82.2575C112.3 81.7945 111.949 81.6424 111.572 81.9202Z" fill="#2D98DA"/>
<path d="M111.553 81.556L112.082 81.8139C111.943 81.7478 111.758 81.7809 111.572 81.9198C111.195 82.1909 110.937 82.8391 110.984 83.2492C111.004 83.474 111.103 83.6328 111.242 83.6923L110.713 83.4344C110.574 83.3748 110.474 83.2227 110.455 82.9912C110.388 82.3695 111.023 81.3179 111.559 81.5626L111.553 81.556Z" fill="#122C33"/>
<path d="M96.6581 86.9072C96.6978 86.8543 96.7705 86.8345 96.8631 86.8411C96.9491 86.8477 97.0549 86.8874 97.1475 86.9601C97.3393 87.099 97.4319 87.2974 97.3525 87.4099L93.8472 92.3174C93.9265 92.205 93.8406 92.0065 93.6488 91.8676C93.5562 91.8015 93.4503 91.7618 93.3577 91.7486C93.2718 91.742 93.1924 91.7618 93.1527 91.8147L96.6581 86.9006V86.9072Z" fill="#2D98DA"/>
<path d="M96.8895 87.0058C96.9292 86.9529 97.002 86.9331 97.0946 86.9397C97.1805 86.9463 97.2864 86.9926 97.379 87.0587C97.5708 87.1976 97.6567 87.3961 97.584 87.5085L94.0786 92.416C94.158 92.3036 94.072 92.1052 93.8736 91.9663C93.781 91.9001 93.6752 91.8605 93.5892 91.8472C93.4966 91.8406 93.4238 91.8604 93.3842 91.9134L96.8895 86.9992V87.0058Z" fill="#8A968A"/>
<path d="M104.191 82.0187C104.244 81.979 104.297 81.9724 104.337 81.9923L104.978 82.3164C104.939 82.2965 104.892 82.3031 104.833 82.3428L96.9094 87.3429L96.9358 87.8059L96.2943 87.4818L96.2678 87.0189L104.191 82.0187Z" fill="#122C33"/>
<path d="M96.9094 87.3428L96.9358 87.8058L104.866 82.8057C104.972 82.7329 105.051 82.5742 105.044 82.4419C105.038 82.3097 104.945 82.2634 104.833 82.3361L96.9094 87.3362V87.3428Z" fill="#2D98DA"/>
<path d="M93.9728 91.6099C93.5958 91.881 93.3312 92.4763 93.3841 92.9393C93.437 93.4022 93.7743 93.5543 94.1513 93.2766C94.5283 93.0054 94.7929 92.4101 94.7466 91.9538C94.7003 91.4908 94.3497 91.3387 93.9728 91.6165V91.6099Z" fill="#2D98DA"/>
<path d="M93.953 91.2464L94.4821 91.5044C94.3432 91.4382 94.1646 91.4713 93.9728 91.6102C93.5958 91.8814 93.3379 92.5295 93.3842 92.9396C93.4106 93.1711 93.5032 93.3232 93.6421 93.3827L93.113 93.1248C92.9741 93.0653 92.8749 92.9065 92.855 92.6817C92.7889 92.06 93.4238 91.0083 93.9596 91.2531L93.953 91.2464Z" fill="#122C33"/>
<path d="M102.505 65.167C102.505 65.8549 101.731 66.417 100.779 66.417C99.8261 66.417 99.0589 65.8549 99.0589 65.167C99.0589 64.4792 99.8327 63.917 100.779 63.917C101.724 63.917 102.505 64.4792 102.505 65.167Z" fill="#17394B"/>
<path d="M101.943 64.3271C102.538 64.6843 102.518 65.2531 101.896 65.597C101.281 65.9409 100.302 65.9343 99.7071 65.5772C99.1185 65.22 99.1383 64.6512 99.7534 64.3073C100.368 63.9634 101.354 63.9766 101.943 64.3271Z" fill="#DB5919"/>
<mask id="mask0_343_2638" style="mask-type:luminance" maskUnits="userSpaceOnUse" x="101" y="63" width="2" height="2">
<path d="M102.372 64.9337C102.372 64.7154 102.227 64.4971 101.943 64.3252C101.936 63.8159 101.771 63.4521 101.532 63.3066C101.87 63.5183 102.035 63.7828 102.161 64.0143C102.346 64.3715 102.372 64.7815 102.379 64.9337H102.372Z" fill="white"/>
</mask>
<g mask="url(#mask0_343_2638)">
<path d="M102.372 64.9337C102.32 63.9879 101.883 63.5315 101.532 63.3066C101.777 63.4521 101.936 63.8159 101.943 64.3252C102.227 64.4971 102.366 64.7154 102.372 64.9337Z" fill="#80340F"/>
</g>
<mask id="mask1_343_2638" style="mask-type:luminance" maskUnits="userSpaceOnUse" x="99" y="63" width="3" height="2">
<path d="M101.532 63.3084C101.777 63.4539 101.936 63.8177 101.943 64.3269C101.347 63.9698 100.368 63.9632 99.7534 64.3071C99.4425 64.4791 99.2838 64.7105 99.2772 64.9486C99.3036 63.9698 99.8393 63.5134 99.9981 63.3944C100.461 63.0571 101.036 63.024 101.532 63.315V63.3084Z" fill="white"/>
</mask>
<g mask="url(#mask1_343_2638)">
<path d="M101.532 63.3082C100.474 62.7129 99.3168 63.5529 99.2772 64.9418C99.2772 64.7103 99.4425 64.4789 99.7534 64.3003C100.368 63.9564 101.354 63.9696 101.943 64.3201C101.936 63.8109 101.771 63.4471 101.532 63.3016V63.3082Z" fill="#80340F"/>
</g>
<mask id="mask2_343_2638" style="mask-type:luminance" maskUnits="userSpaceOnUse" x="100" y="63" width="1" height="1">
<path d="M100.944 63.335C101.01 63.3746 101.01 63.4408 100.944 63.4739C100.878 63.5135 100.765 63.5135 100.699 63.4739C100.633 63.4342 100.633 63.3746 100.699 63.335C100.765 63.2953 100.878 63.3019 100.944 63.335Z" fill="white"/>
</mask>
<g mask="url(#mask2_343_2638)">
<path d="M100.944 63.335C101.01 63.3746 101.01 63.4408 100.944 63.4739C100.878 63.5135 100.765 63.5135 100.699 63.4739C100.633 63.4342 100.633 63.3746 100.699 63.335C100.765 63.2953 100.878 63.3019 100.944 63.335Z" fill="#CB5317"/>
</g>
<mask id="mask3_343_2638" style="mask-type:luminance" maskUnits="userSpaceOnUse" x="99" y="63" width="4" height="3">
<path d="M100.157 63.2884C100.269 63.2289 100.507 63.1099 100.838 63.1165C101.089 63.1165 101.314 63.1826 101.533 63.3149C101.367 63.2157 101.169 63.2157 100.944 63.3413C100.878 63.3017 100.772 63.3017 100.699 63.3413C100.633 63.381 100.626 63.4406 100.699 63.4802C100.765 63.5199 100.871 63.5199 100.944 63.4802C101.01 63.4406 101.017 63.381 100.944 63.3413C101.162 63.2223 101.367 63.2223 101.533 63.3149C101.652 63.3943 101.923 63.5662 102.134 63.9697C102.359 64.4062 102.372 64.8096 102.379 64.9419C102.379 65.18 102.227 65.4247 101.903 65.6033C101.288 65.9472 100.309 65.9406 99.7137 65.5835C99.4227 65.4049 99.2772 65.18 99.2838 64.9551C99.3036 64.5319 99.3764 64.2607 99.555 63.9234C99.6872 63.672 99.9386 63.4141 100.163 63.295L100.157 63.2884Z" fill="white"/>
</mask>
<g mask="url(#mask3_343_2638)">
<path d="M100.157 63.289C100.752 62.9847 101.228 63.1368 101.533 63.3154C101.367 63.2162 101.169 63.2162 100.944 63.3419C100.878 63.3022 100.772 63.3022 100.699 63.3419C100.633 63.3815 100.626 63.4411 100.699 63.4808C100.765 63.5204 100.871 63.5204 100.944 63.4808C101.01 63.4411 101.017 63.3815 100.944 63.3419C101.162 63.2228 101.367 63.2228 101.533 63.3154C102.234 63.7718 102.366 64.5324 102.372 64.9424C102.372 65.1805 102.22 65.4252 101.896 65.6038C101.281 65.9477 100.302 65.9411 99.7071 65.584C99.4161 65.4054 99.2706 65.1805 99.2772 64.9557C99.3367 63.7784 100.025 63.3683 100.157 63.2956V63.289Z" fill="#FF681D"/>
<path d="M101.592 63.9701C101.797 64.3471 101.539 64.9093 101.122 64.7704C100.759 64.6513 100.501 64.0561 100.904 63.818C101.003 63.7585 101.4 63.6196 101.592 63.9701Z" fill="white"/>
</g>
<path d="M106.136 63.1963C106.136 63.8842 105.362 64.4463 104.41 64.4463C103.457 64.4463 102.69 63.8842 102.69 63.1963C102.69 62.5085 103.464 61.9463 104.41 61.9463C105.355 61.9463 106.136 62.5085 106.136 63.1963Z" fill="#17394B"/>
<path d="M105.574 62.3564C106.169 62.7136 106.149 63.2824 105.527 63.6263C104.912 63.9702 103.933 63.9636 103.338 63.6065C102.743 63.2493 102.769 62.6805 103.385 62.3366C104 61.9927 104.985 62.0059 105.574 62.3564Z" fill="#DB5919"/>
<mask id="mask4_343_2638" style="mask-type:luminance" maskUnits="userSpaceOnUse" x="105" y="61" width="2" height="2">
<path d="M106.01 62.9639C106.01 62.7457 105.858 62.5274 105.58 62.3555C105.574 61.8462 105.415 61.4824 105.17 61.3369C105.508 61.5486 105.673 61.8131 105.799 62.0446C105.984 62.4018 106.01 62.8118 106.017 62.9639H106.01Z" fill="white"/>
</mask>
<g mask="url(#mask4_343_2638)">
<path d="M106.01 62.9639C105.957 62.0181 105.521 61.5618 105.164 61.3369C105.408 61.4824 105.567 61.8462 105.574 62.3555C105.858 62.5274 105.997 62.7457 106.004 62.9639H106.01Z" fill="#80340F"/>
</g>
<mask id="mask5_343_2638" style="mask-type:luminance" maskUnits="userSpaceOnUse" x="102" y="61" width="4" height="2">
<path d="M105.164 61.336C105.408 61.4815 105.567 61.8453 105.574 62.3545C104.985 61.9974 104 61.9908 103.385 62.3347C103.074 62.5133 102.915 62.7448 102.908 62.9762C102.935 61.9974 103.471 61.541 103.629 61.422C104.092 61.0847 104.668 61.0582 105.164 61.3426V61.336Z" fill="white"/>
</mask>
<g mask="url(#mask5_343_2638)">
<path d="M105.164 61.3365C104.106 60.7413 102.948 61.5812 102.908 62.9702C102.908 62.7387 103.074 62.5072 103.385 62.3286C104 61.9847 104.985 61.9979 105.574 62.3484C105.567 61.8392 105.408 61.4754 105.164 61.3299V61.3365Z" fill="#80340F"/>
</g>
<mask id="mask6_343_2638" style="mask-type:luminance" maskUnits="userSpaceOnUse" x="104" y="61" width="1" height="1">
<path d="M104.582 61.3643C104.542 61.3841 104.502 61.4172 104.456 61.4568C104.502 61.4238 104.542 61.3907 104.582 61.3643C104.648 61.4039 104.648 61.4701 104.582 61.5031C104.516 61.5428 104.403 61.5428 104.337 61.5031C104.271 61.4635 104.271 61.3973 104.337 61.3643C104.41 61.3246 104.516 61.3312 104.582 61.3643Z" fill="white"/>
</mask>
<g mask="url(#mask6_343_2638)">
<path d="M104.582 61.3643C104.542 61.3841 104.502 61.4172 104.456 61.4568C104.502 61.4238 104.542 61.3907 104.582 61.3643C104.648 61.4039 104.648 61.4701 104.582 61.5031C104.516 61.5428 104.403 61.5428 104.337 61.5031C104.271 61.4635 104.271 61.3973 104.337 61.3643C104.41 61.3246 104.516 61.3312 104.582 61.3643Z" fill="#CB5317"/>
</g>
<mask id="mask7_343_2638" style="mask-type:luminance" maskUnits="userSpaceOnUse" x="102" y="61" width="5" height="3">
<path d="M103.795 61.3177C103.907 61.2582 104.145 61.1392 104.476 61.1458C104.727 61.1458 104.952 61.2119 105.17 61.3442C105.005 61.245 104.806 61.245 104.588 61.3706C104.522 61.331 104.416 61.331 104.343 61.3706C104.277 61.4103 104.271 61.4699 104.343 61.5095C104.41 61.5492 104.515 61.5492 104.588 61.5095C104.661 61.4699 104.661 61.4103 104.588 61.3706C104.806 61.2516 105.011 61.2516 105.17 61.3442C105.289 61.4236 105.56 61.5955 105.772 61.999C105.997 62.4355 106.01 62.8389 106.017 62.9712C106.017 63.2093 105.865 63.454 105.541 63.6326C104.925 63.9765 103.947 63.9699 103.351 63.6128C103.06 63.4342 102.915 63.2093 102.921 62.9844C102.941 62.5611 103.014 62.29 103.193 61.9527C103.325 61.7013 103.576 61.4434 103.801 61.3244L103.795 61.3177Z" fill="white"/>
</mask>
<g mask="url(#mask7_343_2638)">
<path d="M103.794 61.3182C104.39 61.014 104.873 61.1661 105.17 61.3447C105.005 61.2455 104.806 61.2455 104.588 61.3712C104.522 61.3315 104.416 61.3315 104.343 61.3712C104.277 61.4108 104.271 61.4704 104.343 61.5101C104.41 61.5497 104.515 61.5497 104.588 61.5101C104.661 61.4704 104.661 61.4108 104.588 61.3712C104.806 61.2521 105.011 61.2521 105.17 61.3447C105.871 61.8011 105.997 62.5617 106.017 62.9717C106.017 63.2098 105.865 63.4545 105.541 63.6331C104.925 63.977 103.947 63.9704 103.351 63.6133C103.06 63.4347 102.915 63.2098 102.921 62.985C102.981 61.8077 103.662 61.3976 103.801 61.3249L103.794 61.3182Z" fill="#FF681D"/>
<path d="M105.23 61.9994C105.435 62.3764 105.177 62.9386 104.76 62.7997C104.396 62.6806 104.138 62.0854 104.542 61.8473C104.641 61.7878 105.038 61.6489 105.23 61.9994Z" fill="white"/>
</g>
<path d="M86.6843 74.3868C86.6843 75.0746 85.9105 75.6368 84.9647 75.6368C84.0189 75.6368 83.2385 75.0812 83.2385 74.3868C83.2385 73.6923 84.0123 73.1367 84.9647 73.1367C85.9171 73.1367 86.6843 73.6923 86.6843 74.3868Z" fill="#17394B"/>
<path d="M86.1222 73.5405C86.7175 73.8976 86.6976 74.4664 86.0759 74.8104C85.4608 75.1543 84.4753 75.1411 83.8867 74.7905C83.2915 74.4334 83.3179 73.8646 83.933 73.5207C84.5481 73.1767 85.5336 73.1833 86.1222 73.5405Z" fill="#DB5919"/>
<mask id="mask8_343_2638" style="mask-type:luminance" maskUnits="userSpaceOnUse" x="85" y="72" width="2" height="3">
<path d="M86.5589 74.1495C86.5589 73.9312 86.4068 73.713 86.129 73.541C86.1224 73.0317 85.9636 72.668 85.7189 72.5225C86.0562 72.7275 86.2282 72.992 86.3473 73.2301C86.5324 73.5873 86.5589 73.9974 86.5655 74.1495H86.5589Z" fill="white"/>
</mask>
<g mask="url(#mask8_343_2638)">
<path d="M86.5588 74.1495C86.5059 73.2037 86.0694 72.7473 85.7122 72.5225C85.9569 72.668 86.1157 73.0317 86.1223 73.541C86.4067 73.713 86.5456 73.9312 86.5522 74.1495H86.5588Z" fill="#80340F"/>
</g>
<mask id="mask9_343_2638" style="mask-type:luminance" maskUnits="userSpaceOnUse" x="83" y="72" width="4" height="3">
<path d="M85.7121 72.5282C85.9568 72.6737 86.1156 73.0374 86.1222 73.5467C85.5269 73.1895 84.5481 73.1829 83.933 73.5269C83.6221 73.6988 83.4634 73.9303 83.4568 74.1618C83.4832 73.1895 84.019 72.7266 84.1777 72.6075C84.6407 72.2702 85.2161 72.2438 85.7055 72.5282H85.7121Z" fill="white"/>
</mask>
<g mask="url(#mask9_343_2638)">
<path d="M85.7122 72.5279C84.654 71.9327 83.4966 72.7726 83.4569 74.1616C83.4569 73.9301 83.6223 73.6986 83.9331 73.5266C84.5482 73.1827 85.5337 73.1893 86.1223 73.5465C86.1157 73.0372 85.957 72.6734 85.7122 72.5279Z" fill="#80340F"/>
</g>
<mask id="mask10_343_2638" style="mask-type:luminance" maskUnits="userSpaceOnUse" x="84" y="72" width="2" height="1">
<path d="M85.1235 72.5483C85.0838 72.5682 85.0441 72.6012 84.9978 72.6409C85.0441 72.6078 85.0838 72.5748 85.1235 72.5483C85.1896 72.588 85.1896 72.6541 85.1235 72.6872C85.0573 72.7269 84.9449 72.7203 84.8788 72.6872C84.8126 72.6475 84.8126 72.588 84.8788 72.5483C84.9449 72.5086 85.0573 72.5086 85.1235 72.5483Z" fill="white"/>
</mask>
<g mask="url(#mask10_343_2638)">
<path d="M85.1235 72.5483C85.0838 72.5682 85.0441 72.6012 84.9978 72.6409C85.0441 72.6078 85.0838 72.5748 85.1235 72.5483C85.1896 72.588 85.1896 72.6541 85.1235 72.6872C85.0573 72.7269 84.9449 72.7203 84.8788 72.6872C84.8126 72.6475 84.8126 72.588 84.8788 72.5483C84.9449 72.5086 85.0573 72.5086 85.1235 72.5483Z" fill="#CB5317"/>
</g>
<mask id="mask11_343_2638" style="mask-type:luminance" maskUnits="userSpaceOnUse" x="83" y="72" width="4" height="4">
<path d="M84.3367 72.5023C84.4491 72.4428 84.6872 72.3237 85.0179 72.3303C85.2692 72.3303 85.4941 72.3965 85.7124 72.5288C85.547 72.4295 85.3486 72.4295 85.1304 72.5552C85.0642 72.5155 84.9584 72.5155 84.8856 72.5552C84.8195 72.5949 84.8129 72.6544 84.8856 72.6941C84.9518 72.7338 85.0576 72.7338 85.1304 72.6941C85.1965 72.6544 85.2031 72.5949 85.1304 72.5552C85.3486 72.4362 85.5536 72.4295 85.7124 72.5288C85.8314 72.6081 86.1026 72.7801 86.3142 73.1835C86.5391 73.6201 86.5523 74.0235 86.559 74.1558C86.559 74.3939 86.4068 74.6386 86.0828 74.8172C85.4677 75.1611 84.4822 75.1479 83.8936 74.7973C83.6025 74.6188 83.457 74.3939 83.4637 74.1624C83.4835 73.7391 83.5562 73.4679 83.7348 73.1306C83.8671 72.8793 84.1184 72.6214 84.3433 72.5023H84.3367Z" fill="white"/>
</mask>
<g mask="url(#mask11_343_2638)">
<path d="M84.3365 72.5018C84.9317 72.1976 85.4079 72.3497 85.7056 72.5283C85.5402 72.4291 85.3418 72.4291 85.1235 72.5548C85.0574 72.5151 84.9516 72.5151 84.8788 72.5548C84.8127 72.5944 84.8061 72.654 84.8788 72.6936C84.945 72.7333 85.0508 72.7333 85.1235 72.6936C85.1897 72.654 85.1963 72.5944 85.1235 72.5548C85.3418 72.4357 85.5468 72.4291 85.7056 72.5283C86.4132 72.9847 86.5389 73.7386 86.5521 74.1553C86.5521 74.3934 86.4 74.6381 86.0759 74.8167C85.4608 75.1606 84.4754 75.1474 83.8867 74.7969C83.5957 74.6183 83.4502 74.3934 83.4568 74.1619C83.5163 72.9847 84.2042 72.5746 84.3365 72.5085V72.5018Z" fill="#FF681D"/>
<path d="M85.7783 73.183C85.9834 73.56 85.7254 74.1222 85.3087 73.9833C84.945 73.8642 84.687 73.269 85.0905 73.0309C85.1897 72.9714 85.5865 72.8325 85.7783 73.183Z" fill="white"/>
</g>
<path d="M98.5893 67.5684C98.5893 68.2562 97.8155 68.8184 96.8631 68.8184C95.9107 68.8184 95.1435 68.2562 95.1435 67.5684C95.1435 66.8805 95.9173 66.3184 96.8631 66.3184C97.8089 66.3184 98.5893 66.8739 98.5893 67.5684Z" fill="#17394B"/>
<path d="M98.0205 66.728C98.6158 67.0851 98.596 67.6539 97.9743 67.9979C97.3592 68.3418 96.3737 68.3352 95.7851 67.978C95.1898 67.6209 95.2096 67.0521 95.8313 66.7082C96.4464 66.3642 97.4319 66.3708 98.0205 66.728Z" fill="#DB5919"/>
<mask id="mask12_343_2638" style="mask-type:luminance" maskUnits="userSpaceOnUse" x="97" y="65" width="2" height="3">
<path d="M98.4571 67.336C98.4571 67.1177 98.305 66.8995 98.0272 66.7275C98.0206 66.2183 97.8618 65.8545 97.6171 65.709C97.9544 65.914 98.1198 66.1852 98.2454 66.4167C98.4306 66.7738 98.4571 67.1773 98.4637 67.336H98.4571Z" fill="white"/>
</mask>
<g mask="url(#mask12_343_2638)">
<path d="M98.4571 67.336C98.4042 66.3902 97.9677 65.9339 97.6105 65.709C97.8552 65.8545 98.014 66.2183 98.0206 66.7275C98.305 66.8995 98.4505 67.1177 98.4505 67.336H98.4571Z" fill="#80340F"/>
</g>
<mask id="mask13_343_2638" style="mask-type:luminance" maskUnits="userSpaceOnUse" x="95" y="65" width="4" height="3">
<path d="M97.6105 65.7157C97.8552 65.8612 98.014 66.2249 98.0206 66.7342C97.4319 66.377 96.4465 66.3704 95.8314 66.7144C95.5205 66.8863 95.3618 67.1178 95.3552 67.3493C95.3816 66.377 95.9173 65.9141 96.0761 65.795C96.5391 65.4577 97.1145 65.4313 97.6105 65.7157Z" fill="white"/>
</mask>
<g mask="url(#mask13_343_2638)">
<path d="M97.6105 65.7154C96.5523 65.1202 95.3948 65.9601 95.3552 67.3491C95.3552 67.1176 95.5205 66.8861 95.8314 66.7141C96.4465 66.3702 97.4319 66.3768 98.0206 66.734C98.014 66.2247 97.8552 65.8609 97.6105 65.7154Z" fill="#80340F"/>
</g>
<mask id="mask14_343_2638" style="mask-type:luminance" maskUnits="userSpaceOnUse" x="96" y="65" width="2" height="1">
<path d="M97.0283 65.7348C97.0945 65.7745 97.0945 65.8407 97.0283 65.8737C96.9622 65.9134 96.8498 65.9134 96.7836 65.8737C96.7175 65.834 96.7175 65.7745 96.7836 65.7348C96.8564 65.6952 96.9622 65.6952 97.0283 65.7348Z" fill="white"/>
</mask>
<g mask="url(#mask14_343_2638)">
<path d="M97.0283 65.7348C97.0944 65.7745 97.0944 65.8407 97.0283 65.8737C96.9621 65.9134 96.8497 65.9134 96.7836 65.8737C96.7174 65.834 96.7174 65.7745 96.7836 65.7348C96.8563 65.6952 96.9621 65.6952 97.0283 65.7348Z" fill="#CB5317"/>
</g>
<mask id="mask15_343_2638" style="mask-type:luminance" maskUnits="userSpaceOnUse" x="95" y="65" width="4" height="4">
<path d="M96.2412 65.6879C96.3537 65.6283 96.5918 65.5093 96.9225 65.5159C97.1738 65.5159 97.3987 65.5886 97.6169 65.7143C97.4516 65.6151 97.2532 65.6151 97.0283 65.7341C96.9621 65.6945 96.8563 65.6945 96.7836 65.7341C96.7174 65.7738 96.7108 65.8334 96.7836 65.873C96.8497 65.9127 96.9621 65.9127 97.0283 65.873C97.0944 65.8334 97.101 65.7738 97.0283 65.7341C97.2465 65.6151 97.4516 65.6151 97.6169 65.7143C97.736 65.7871 98.0071 65.9656 98.2188 66.3691C98.4437 66.8056 98.4569 67.2091 98.4635 67.3413C98.4635 67.5794 98.3114 67.8241 97.9873 68.0027C97.3722 68.3466 96.3867 68.34 95.7981 67.9829C95.5071 67.8043 95.3616 67.5794 95.3682 67.3479C95.388 66.9247 95.4608 66.6535 95.6394 66.3162C95.7716 66.0648 96.023 65.8003 96.2478 65.6879H96.2412Z" fill="white"/>
</mask>
<g mask="url(#mask15_343_2638)">
<path d="M96.2413 65.6884C96.8365 65.3841 97.3127 65.5362 97.617 65.7148C97.4516 65.6156 97.2532 65.6156 97.0283 65.7347C96.9622 65.695 96.8564 65.695 96.7836 65.7347C96.7175 65.7743 96.7109 65.8339 96.7836 65.8736C96.8498 65.9132 96.9622 65.9132 97.0283 65.8736C97.0945 65.8339 97.1011 65.7743 97.0283 65.7347C97.2466 65.6156 97.4516 65.6156 97.617 65.7148C98.3181 66.1712 98.4437 66.9252 98.4636 67.3418C98.4636 67.5799 98.3114 67.8247 97.9874 68.0032C97.3723 68.3472 96.3868 68.3405 95.7982 67.9834C95.5071 67.8048 95.3616 67.5799 95.3683 67.3485C95.4278 66.1712 96.1156 65.7611 96.2479 65.695L96.2413 65.6884Z" fill="#FF681D"/>
<path d="M97.6765 66.3695C97.8815 66.7465 97.6236 67.3087 97.2069 67.1698C96.8431 67.0508 96.5852 66.4555 96.9886 66.2174C97.0878 66.1579 97.4913 66.019 97.6765 66.3695Z" fill="white"/>
</g>
<path d="M84.9184 61.8398L88.8537 64.1283C89.6738 64.6045 90.99 64.6045 91.8167 64.1283L100.732 58.9826C101.149 58.7445 101.354 58.4337 101.354 58.1162L101.387 58.89C101.387 59.2009 101.182 59.5117 100.765 59.7565L91.8498 64.9021C91.0296 65.3783 89.7068 65.3783 88.8867 64.9021L84.9514 62.6137C84.5414 62.3756 84.3364 62.0647 84.3364 61.7539L84.3033 60.98C84.3033 61.2909 84.5083 61.6017 84.9118 61.8398H84.9184Z" fill="#9DAAB3"/>
<g opacity="0.4">
<path d="M84.925 60.1207C84.0983 60.5969 84.1049 61.3641 84.925 61.8403L88.8603 64.1287C89.6804 64.6049 90.9966 64.6049 91.8233 64.1287L100.739 58.9831C101.559 58.5069 101.566 57.7397 100.752 57.2701L96.8168 54.9817C95.9967 54.5055 94.6739 54.4989 93.8538 54.9817L84.9382 60.1273L84.925 60.1207Z" fill="white"/>
</g>
<path d="M77.0743 74.6384C75.0306 73.4678 71.5517 71.8143 71.5451 71.8077C71.5252 71.7878 70.6191 71.3976 70.0768 71.6688C69.5278 71.9466 69.2236 72.5617 69.2236 73.9969V98.9445C69.3492 99.0305 69.4617 99.1033 69.5741 99.1826V74.0035C69.5741 72.3103 69.918 72.2177 70.1231 72.0458C70.4405 71.768 71.2342 72.0259 71.2673 72.0458C71.307 72.0656 74.8652 73.7852 76.8957 74.9493C80.7847 77.1848 84.1049 81.2854 84.8655 85.0024C85.712 89.1361 86.3734 95.1217 86.3338 98.3493V117.755H86.6843V98.3493C86.6843 95.3003 86.056 88.6335 85.044 84.4998C84.085 80.5645 81.036 76.9268 77.0677 74.645L77.0743 74.6384Z" fill="#517A7C"/>
<path d="M77.9937 113.885C78.2053 114.612 78.6022 115.3 79.2569 115.677L86.3206 119.685C87.5905 120.433 89.6209 119.857 89.6209 117.562V116.266L77.2198 110.28C77.4117 111.398 77.6101 112.575 77.9937 113.878V113.885Z" fill="#3A4D56"/>
<path d="M98.5431 111.947C97.9346 109.99 96.8896 108.039 96.8896 108.039C96.8896 108.039 96.0827 106.577 94.707 106.848C94.1382 106.96 89.8325 108.998 88.3709 109.752C87.4581 110.221 87.5706 110.988 87.5706 110.988C87.5706 110.988 87.4383 114.91 87.4383 117.688C87.4383 119.481 87.5904 120.426 89.4026 119.269L97.7295 114.527C98.7282 113.951 98.887 113.006 98.5563 111.947H98.5431Z" fill="#2D98DA"/>
<path d="M65.5859 97.8663V51.8467L64.5475 52.3824C64.5475 52.3824 62.2327 53.692 60.0964 53.2621V54.1946C60.8504 55.1933 61.7432 56.4963 61.7432 57.0651V100.102L65.5925 97.8597L65.5859 97.8663Z" fill="#9DB4BF"/>
<path d="M59.1176 52.8061L56.7961 51.5098V97.2648L61.7367 100.115L61.7896 53.3154H61.7367C61.7367 53.3154 60.3345 53.4873 59.1176 52.8127V52.8061Z" fill="#8295A0"/>
<g opacity="0.68">
<path d="M125.971 88.044C125.898 85.5374 125.667 83.0042 125.356 80.5703L125.052 80.782C125.052 80.782 124.939 80.7026 124.827 80.7224C124.747 80.8613 124.668 81.0068 124.582 81.1457C124.562 81.3375 124.569 81.6087 124.622 82.0055C124.814 83.3283 125.071 87.1115 125.177 88.7716C125.475 88.5401 125.766 88.3086 126.044 88.0969C125.997 88.0705 125.964 88.0506 125.964 88.0506L125.971 88.044Z" fill="#C6D9E0"/>
</g>
<path d="M125.111 79.0107C125.171 79.0107 125.157 79.7581 124.503 80.5981C123.828 81.4513 124.595 80.7965 121.632 83.7595C118.702 86.6895 113.001 91.6036 109.516 93.3497C106.46 94.8775 102.498 96.1077 94.3829 98.0588C91.4662 98.7599 89.5085 99.084 87.9277 99.0707C87.9476 99.6395 87.9608 100.162 87.974 100.665C89.6738 100.665 91.7506 100.321 94.7467 99.5998C103.1 97.5958 107.002 96.3789 110.223 94.7717C114.073 92.847 119.952 87.6882 122.75 84.8839C124.053 83.581 124.985 82.278 125.422 81.0809C125.283 79.9301 125.283 80.1087 125.111 79.0107Z" fill="#AAC9CC"/>
<path d="M119.178 87.0793C119.205 86.484 119.178 86.0806 118.358 86.7287C116.202 88.4285 110.415 92.205 109.654 92.668C109.119 92.9921 103.186 95.2541 98.3446 96.9141C98.0933 97.0001 97.4848 97.106 97.8816 97.7541C97.8816 97.7541 97.9213 97.8666 98.1528 98.4684C98.5099 99.3679 100.196 98.9049 100.196 98.9049C106.004 97.3771 110.203 95.7898 110.812 95.4128C111.672 94.8771 115.336 92.2513 117.981 89.7314C117.981 89.7314 118.907 88.951 119.073 87.9126C119.205 87.0727 119.172 87.0925 119.172 87.0925L119.178 87.0793Z" fill="#2D98DA"/>
<path d="M126.824 88.7062C126.824 88.7062 102.167 103.832 92.6302 109.262C89.0256 111.313 88.1328 109.924 88.1328 109.924C88.1328 109.924 88.1526 109.91 88.1989 109.884C88.4833 109.719 89.6473 109.051 91.8233 107.9C92.5905 107.49 96.3538 105.506 101.208 102.609C101.486 102.443 101.354 102.311 101.44 101.841C101.526 101.398 101.883 101.22 102.081 101.114C104.754 99.7118 112.035 95.3267 116.559 92.668C116.811 92.5224 117.095 92.4497 117.188 92.701C117.287 92.9656 117.102 93.2434 117.287 93.1309C121.89 90.4258 125.951 88.0713 125.951 88.0713C125.951 88.0713 126.262 88.2366 126.361 88.3094C126.48 88.3954 126.818 88.7062 126.818 88.7062H126.824Z" fill="#2D98DA"/>
<path d="M116.579 57.5547C116.579 58.2426 115.805 58.8047 114.86 58.8047C113.914 58.8047 113.14 58.2426 113.14 57.5547C113.14 56.8669 113.914 56.3047 114.86 56.3047C115.805 56.3047 116.579 56.8669 116.579 57.5547Z" fill="#17394B"/>
<path d="M116.017 56.7153C116.612 57.0725 116.592 57.6412 115.971 57.9852C115.356 58.3291 114.37 58.3159 113.781 57.9653C113.186 57.6082 113.206 57.0394 113.828 56.6955C114.443 56.3515 115.428 56.3581 116.017 56.7153Z" fill="#DB5919"/>
<mask id="mask16_343_2638" style="mask-type:luminance" maskUnits="userSpaceOnUse" x="115" y="55" width="2" height="3">
<path d="M116.447 57.3165C116.447 57.0982 116.295 56.88 116.017 56.708C116.01 56.2053 115.852 55.835 115.607 55.6895C115.944 55.8945 116.116 56.1657 116.235 56.3971C116.42 56.7543 116.447 57.1644 116.454 57.3165H116.447Z" fill="white"/>
</mask>
<g mask="url(#mask16_343_2638)">
<path d="M116.447 57.3167C116.394 56.3775 115.957 55.9145 115.607 55.6963C115.852 55.8418 116.01 56.2056 116.017 56.7148C116.301 56.8868 116.44 57.1051 116.447 57.3233V57.3167Z" fill="#80340F"/>
</g>
<mask id="mask17_343_2638" style="mask-type:luminance" maskUnits="userSpaceOnUse" x="113" y="55" width="4" height="3">
<path d="M115.607 55.6963C115.852 55.8419 116.01 56.2056 116.017 56.7149C115.428 56.3577 114.443 56.3511 113.828 56.695C113.517 56.867 113.358 57.0985 113.352 57.3366C113.378 56.3643 113.914 55.9014 114.072 55.7823C114.535 55.445 115.111 55.4186 115.607 55.703V55.6963Z" fill="white"/>
</mask>
<g mask="url(#mask17_343_2638)">
<path d="M115.607 55.6959C114.549 55.1006 113.391 55.9406 113.351 57.3295C113.351 57.098 113.517 56.8666 113.828 56.688C114.443 56.3441 115.428 56.3507 116.017 56.7078C116.01 56.2052 115.851 55.8348 115.607 55.6893V55.6959Z" fill="#80340F"/>
</g>
<mask id="mask18_343_2638" style="mask-type:luminance" maskUnits="userSpaceOnUse" x="114" y="55" width="2" height="1">
<path d="M115.018 55.7231C114.979 55.743 114.939 55.776 114.893 55.8157C114.939 55.7826 114.979 55.7496 115.018 55.7231C115.084 55.7628 115.084 55.8223 115.018 55.862C114.952 55.9017 114.84 55.9017 114.774 55.862C114.707 55.8223 114.714 55.7628 114.774 55.7231C114.84 55.6834 114.952 55.6834 115.018 55.7231Z" fill="white"/>
</mask>
<g mask="url(#mask18_343_2638)">
<path d="M115.018 55.7231C114.979 55.743 114.939 55.776 114.893 55.8157C114.939 55.7826 114.979 55.7496 115.018 55.7231C115.084 55.7628 115.084 55.8223 115.018 55.862C114.952 55.9017 114.84 55.9017 114.774 55.862C114.707 55.8223 114.714 55.7628 114.774 55.7231C114.84 55.6834 114.952 55.6834 115.018 55.7231Z" fill="#CB5317"/>
</g>
<mask id="mask19_343_2638" style="mask-type:luminance" maskUnits="userSpaceOnUse" x="113" y="55" width="4" height="4">
<path d="M114.231 55.6713C114.344 55.6117 114.582 55.4927 114.912 55.4993C115.164 55.4993 115.389 55.5654 115.607 55.6977C115.442 55.5985 115.243 55.5985 115.018 55.7242C114.952 55.6845 114.846 55.6845 114.774 55.7242C114.707 55.7638 114.701 55.8234 114.774 55.8631C114.84 55.9027 114.952 55.9027 115.018 55.8631C115.084 55.8234 115.091 55.7638 115.018 55.7242C115.236 55.6051 115.442 55.5985 115.607 55.6977C115.726 55.7771 115.997 55.949 116.209 56.3525C116.434 56.789 116.447 57.1925 116.453 57.3247C116.453 57.5628 116.301 57.8075 115.977 57.9861C115.362 58.33 114.377 58.3168 113.788 57.9663C113.497 57.7877 113.352 57.5628 113.358 57.338C113.378 56.9147 113.451 56.6435 113.629 56.3062C113.762 56.0549 114.013 55.7969 114.238 55.6779L114.231 55.6713Z" fill="white"/>
</mask>
<g mask="url(#mask19_343_2638)">
<path d="M114.231 55.6708C114.826 55.3665 115.303 55.5187 115.607 55.6972C115.442 55.598 115.243 55.598 115.018 55.7237C114.952 55.684 114.846 55.684 114.774 55.7237C114.707 55.7634 114.701 55.8229 114.774 55.8626C114.84 55.9023 114.952 55.9023 115.018 55.8626C115.084 55.8229 115.091 55.7634 115.018 55.7237C115.236 55.6046 115.442 55.598 115.607 55.6972C116.308 56.1536 116.44 56.9076 116.447 57.3176C116.447 57.5557 116.295 57.8005 115.971 57.979C115.356 58.323 114.37 58.3097 113.781 57.9592C113.49 57.7806 113.345 57.5558 113.352 57.3309C113.411 56.1536 114.092 55.7435 114.231 55.6708Z" fill="#FF681D"/>
<path d="M115.667 56.3592C115.872 56.7362 115.614 57.2984 115.197 57.1595C114.833 57.0404 114.575 56.4452 114.979 56.2071C115.078 56.1542 115.475 56.0087 115.667 56.3592Z" fill="white"/>
</g>
</svg>
