<svg width="25" height="12" viewBox="0 0 25 12" fill="none" xmlns="http://www.w3.org/2000/svg">
<path d="M-4.30089e-06 11.1227C-4.29108e-06 10.8983 0.0853629 10.674 0.258506 10.5008L9.7546 1.00228C10.4008 0.356039 11.2593 -5.72185e-07 12.1738 -5.32211e-07C13.0883 -4.92238e-07 13.9467 0.356039 14.5929 1.00228L24.0914 10.5008C24.4353 10.8447 24.4353 11.4007 24.0914 11.7421C23.7476 12.086 23.1916 12.086 22.8502 11.7421L13.3516 2.24355C12.7029 1.59487 11.647 1.59487 10.9983 2.24355L1.50221 11.7421C1.15836 12.086 0.602359 12.086 0.260948 11.7421C0.0902419 11.5714 0.0024371 11.3446 0.00243711 11.1202L-4.30089e-06 11.1227Z" fill="black"/>
</svg>
