<svg width="25" height="12" viewBox="0 0 25 12" fill="none" xmlns="http://www.w3.org/2000/svg">
<path d="M24.3493 0.877314C24.3493 1.10167 24.264 1.32604 24.0908 1.49918L14.5947 10.9977C13.9485 11.644 13.0901 12 12.1756 12C11.2611 12 10.4027 11.644 9.75642 10.9977L0.257888 1.49918C-0.0859623 1.15533 -0.0859623 0.599298 0.257888 0.257887C0.601737 -0.0859632 1.15774 -0.0859632 1.49915 0.257887L10.9977 9.75645C11.6464 10.4051 12.7023 10.4051 13.351 9.75645L22.8471 0.257887C23.191 -0.085963 23.747 -0.085963 24.0884 0.257887C24.2591 0.428592 24.3469 0.655399 24.3469 0.879755L24.3493 0.877314Z" fill="black"/>
</svg>
