<svg width="48" height="48" viewBox="0 0 48 48" fill="none" xmlns="http://www.w3.org/2000/svg">
<g clip-path="url(#clip0_1377_430)">
<path d="M47 23.9427C47 36.6792 36.6792 47 23.9427 47C11.2124 47 1 36.6855 1 23.9427C1 11.2093 11.3177 1 23.9427 1C36.5709 1 47 11.327 47 23.9427Z" fill="url(#paint0_linear_1377_430)" stroke="white" stroke-width="2"/>
<path fill-rule="evenodd" clip-rule="evenodd" d="M38.2635 20.6271C36.6596 13.9827 30.9317 9.40039 24.0582 9.40039C23.1417 9.40039 22.1107 9.40039 21.3088 9.74407C11.5713 11.6916 6.64532 22.3455 11.3422 31.0519C11.4568 31.2811 11.4568 31.5102 11.4568 31.7393C10.7694 33.9159 10.1966 36.3216 9.50928 38.4982C9.50928 38.4982 9.58565 38.6128 9.73839 38.8419C12.1441 38.1546 14.4353 37.5818 16.841 37.009C17.0701 37.009 17.1847 37.009 17.4138 37.009C20.3923 38.4982 23.6 38.9565 27.0367 38.3837C35.0558 36.8944 40.3255 28.6462 38.378 20.7417L38.2635 20.6271ZM26.0057 35.8634C25.3183 35.978 24.631 36.0925 24.2873 35.978C21.6525 35.978 19.5904 35.4052 17.7575 34.2596C17.5284 34.145 17.2993 34.0305 17.0701 34.145C15.6954 34.4887 14.4353 34.8324 13.1751 35.176C12.946 35.176 12.8315 35.176 12.946 34.9469C13.2897 33.6868 13.6334 32.5412 13.9771 31.2811C13.9771 30.9374 13.9771 30.7083 13.8625 30.3646C11.2277 26.0114 11.3422 20.7417 14.3207 16.7321C17.4138 12.608 21.6525 10.8897 26.693 11.9207C31.6191 12.9517 34.8267 16.1593 35.9723 21.0854C37.5761 27.8443 32.9938 34.6033 26.2348 35.6343L26.0057 35.8634Z" fill="white"/>
<path fill-rule="evenodd" clip-rule="evenodd" d="M27.8366 30.8256C27.8366 30.8256 26.8056 30.8256 26.3473 30.5965C23.0251 29.68 20.5048 27.6179 18.4428 24.754C17.6409 23.7229 16.9535 22.5774 16.7244 21.3172C16.3807 19.828 16.839 18.4533 17.9846 17.4222C18.3282 17.0786 19.4738 16.8494 19.9321 17.0786C20.0466 17.1931 20.1612 17.3077 20.2757 17.5368C20.734 18.5678 21.0776 19.4843 21.5359 20.5153C21.5359 20.7444 21.5359 20.9735 21.5359 21.0881C21.3068 21.5463 20.9631 21.89 20.6194 22.2337C20.3903 22.4628 20.3903 22.8065 20.6194 23.0356C21.765 24.9831 23.4834 26.4724 25.66 27.2743C26.0036 27.3888 26.2328 27.2743 26.4619 27.1597C26.8056 26.7015 27.1492 26.2432 27.6075 25.785C27.8366 25.4413 28.0657 25.4413 28.4094 25.5559C29.0967 25.8996 29.7841 26.2432 30.4714 26.5869C30.7005 26.5869 30.8151 26.7015 30.9297 26.816C31.617 27.1597 31.617 27.2743 31.617 27.9616C31.617 29.4509 30.3569 30.2528 28.9822 30.5965C28.6385 30.5965 28.2948 30.5965 28.0657 30.5965L27.8366 30.8256Z" fill="white"/>
</g>
<defs>
<linearGradient id="paint0_linear_1377_430" x1="23.4845" y1="-19.1313" x2="24.401" y2="56.1336" gradientUnits="userSpaceOnUse">
<stop offset="0.13" stop-color="#01CF2D"/>
<stop offset="0.79" stop-color="#009804"/>
</linearGradient>
<clipPath id="clip0_1377_430">
<rect width="48" height="48" fill="white"/>
</clipPath>
</defs>
</svg>
