<svg width="54" height="54" viewBox="0 0 54 54" fill="none" xmlns="http://www.w3.org/2000/svg">
<circle cx="27" cy="27" r="26.6351" fill="#5AB21C" stroke="white" stroke-width="0.72973"/>
<path d="M37.9669 25.1244C38.6457 23.8645 39.1373 22.5125 39.4264 21.1109C39.6033 20.3708 39.8177 19.6401 40.0685 18.9217C40.2294 18.502 40.2811 18.0484 40.2188 17.6033C40.1566 17.1583 39.9824 16.7363 39.7127 16.3768C39.4429 16.0174 39.0863 15.7323 38.6764 15.5481C38.2664 15.364 37.8164 15.2869 37.3685 15.3241L36.3615 15.3898C33.9461 15.5284 30.9396 15.7036 29.2102 17.4184C27.2472 19.3668 26.2402 23.0447 26.1672 26.3503C24.8683 24.0809 22.9272 21.9282 20.8767 21.1619C18.8261 20.3957 16.4399 21.4101 14.4915 22.1836L13.6815 22.4974C13.3071 22.6376 12.9739 22.8696 12.7125 23.1722C12.4512 23.4748 12.27 23.8382 12.1858 24.2291C12.1015 24.6199 12.1168 25.0257 12.2302 25.4091C12.3437 25.7925 12.5516 26.1412 12.835 26.4233C13.2875 26.8757 13.6961 27.3792 14.134 27.8828C14.8766 28.8796 15.7589 29.7644 16.7537 30.5098C18.2788 31.42 20.0361 31.8662 21.8107 31.7941C22.8245 31.8038 23.8367 31.7109 24.8318 31.5168C24.1021 34.0052 24.3137 37.9238 24.6858 41.2003C24.7578 41.8441 25.0651 42.4385 25.5486 42.8695C26.0321 43.3005 26.6578 43.5377 27.3056 43.5355H27.5391C27.9347 43.5079 28.3189 43.3913 28.6632 43.1945C29.0075 42.9977 29.3029 42.7257 29.5274 42.3988C29.7518 42.0719 29.8996 41.6985 29.9597 41.3065C30.0197 40.9145 29.9905 40.514 29.8742 40.1349C28.9256 36.9825 28.7285 31.8817 28.6921 30.3128C32.1729 29.7947 36.2885 27.9338 37.9669 25.1244ZM18.8042 26.8903C21.1924 27.3876 23.4374 28.4179 25.3718 29.9041C22.8469 30.6338 19.4756 30.6338 17.5564 29.3568C16.6839 28.6846 15.9123 27.8909 15.265 26.9998C14.8272 26.4671 14.3675 25.9125 13.8712 25.409C13.758 25.3012 13.6749 25.1658 13.6301 25.016C13.5853 24.8663 13.5804 24.7074 13.6158 24.5552C13.6473 24.4017 13.7174 24.2588 13.8196 24.14C13.9217 24.0213 14.0526 23.9306 14.1996 23.8765L15.0315 23.5555C16.381 22.9211 17.8303 22.5261 19.315 22.3879C19.6795 22.3825 20.0423 22.4393 20.3877 22.5557C22.3361 23.2855 24.3283 25.7228 25.4302 28.109C23.527 26.8326 21.3966 25.9334 19.1545 25.4601C18.9668 25.4138 18.7683 25.4439 18.6028 25.5437C18.4372 25.6436 18.3181 25.8051 18.2715 25.9928C18.2464 26.0867 18.2403 26.1847 18.2536 26.281C18.2669 26.3773 18.2993 26.47 18.349 26.5537C18.3986 26.6373 18.4644 26.7101 18.5426 26.768C18.6208 26.8258 18.7097 26.8674 18.8042 26.8903ZM28.3272 41.5944C28.2271 41.7403 28.0961 41.8624 27.9435 41.952C27.7909 42.0415 27.6204 42.0963 27.4442 42.1125C27.137 42.1411 26.8308 42.0477 26.5919 41.8524C26.3529 41.6572 26.2004 41.3758 26.1672 41.069C25.6053 36.1579 25.7804 32.4655 26.5977 31.079C26.6871 31.0507 26.7692 31.0034 26.8385 30.9403C26.9787 30.948 27.118 30.915 27.2399 30.8455C27.3056 32.8449 27.5464 37.5006 28.4804 40.5947C28.5304 40.7622 28.5426 40.9389 28.5161 41.1117C28.4896 41.2846 28.4251 41.4495 28.3272 41.5944ZM28.4367 28.9117C29.7658 26.2965 31.6813 24.0239 34.0337 22.2711C34.1092 22.2114 34.1721 22.1374 34.2189 22.0533C34.2657 21.9692 34.2953 21.8766 34.3062 21.781C34.317 21.6853 34.3089 21.5885 34.2821 21.496C34.2554 21.4036 34.2106 21.3173 34.1504 21.2422C34.0902 21.1673 34.0158 21.1049 33.9314 21.0588C33.847 21.0127 33.7544 20.9838 33.6587 20.9736C33.5631 20.9634 33.4664 20.9722 33.3742 20.9996C33.282 21.0269 33.1962 21.0721 33.1215 21.1328C30.8813 22.8068 29.0086 24.9229 27.6194 27.3501C27.4953 24.1684 28.3929 20.3301 30.2391 18.4984C31.5745 17.1776 34.2745 17.039 36.4491 16.8857C36.7994 16.8857 37.1788 16.8492 37.478 16.8201C37.6789 16.8049 37.8803 16.8404 38.0639 16.9233C38.2475 17.0061 38.4073 17.1337 38.5288 17.2944C38.6452 17.4501 38.7215 17.6321 38.7508 17.8243C38.78 18.0165 38.7614 18.213 38.6967 18.3963C38.4194 19.1625 38.2077 19.9725 38.0107 20.746C37.7557 22.0174 37.3208 23.246 36.7191 24.3947C35.2815 26.7736 31.5161 28.4592 28.4367 28.8752V28.9117ZM5.17287 14.9082C5.13122 14.816 5.1092 14.7161 5.10819 14.615C5.10718 14.5138 5.12722 14.4136 5.16702 14.3206C5.20682 14.2276 5.26553 14.1439 5.33941 14.0748C5.41328 14.0057 5.50072 13.9527 5.59617 13.9192C5.69161 13.8857 5.79298 13.8724 5.89384 13.8801C5.9947 13.8879 6.09284 13.9165 6.18204 13.9643C6.27124 14.012 6.34955 14.0777 6.41199 14.1573C6.47443 14.2369 6.51965 14.3286 6.54476 14.4265L7.90206 18.2868C9.88127 13.9651 13.2802 10.4512 17.5337 8.32931C21.7871 6.20745 26.6388 5.60553 31.2818 6.62367C35.9248 7.64181 40.0794 10.2186 43.0547 13.9257C46.03 17.6327 47.6466 22.2465 47.6358 26.9998C47.6358 27.1933 47.559 27.3789 47.4221 27.5158C47.2853 27.6526 47.0997 27.7295 46.9061 27.7295C46.7126 27.7295 46.527 27.6526 46.3901 27.5158C46.2533 27.3789 46.1764 27.1933 46.1764 26.9998C46.1736 22.574 44.6545 18.2827 41.8721 14.8408C39.0898 11.399 35.2121 9.01443 30.8851 8.08435C26.5581 7.15427 22.043 7.73486 18.0921 9.72938C14.1412 11.7239 10.9929 15.0119 9.17179 19.0457C9.26189 19.0317 9.35005 19.0072 9.43449 18.9728L13.4407 17.3163C13.6188 17.2437 13.8185 17.2443 13.9961 17.3181C14.1738 17.3919 14.3151 17.5329 14.3894 17.7103C14.4264 17.7989 14.4457 17.894 14.4459 17.9901C14.4462 18.0861 14.4275 18.1813 14.3909 18.2701C14.3542 18.3589 14.3005 18.4397 14.2326 18.5076C14.1647 18.5756 14.0841 18.6295 13.9953 18.6663L9.99639 20.3228C9.67903 20.4525 9.33951 20.5194 8.99666 20.5198C8.62751 20.5173 8.26266 20.4404 7.92395 20.2936C7.59832 20.149 7.30589 19.939 7.06486 19.6767C6.82383 19.4143 6.63934 19.1051 6.52287 18.7684L5.17287 14.9082ZM47.4972 34.7349L48.8472 38.6025C48.9103 38.7844 48.8989 38.984 48.8155 39.1576C48.7322 39.3312 48.5835 39.4648 48.4021 39.5292C48.3248 39.5573 48.2434 39.5721 48.1613 39.573C48.0104 39.5724 47.8634 39.5251 47.7406 39.4375C47.6178 39.35 47.5251 39.2265 47.4753 39.0841L46.1399 35.2238C46.1099 35.1396 46.0707 35.0588 46.0231 34.983C46.0267 35.0243 46.0267 35.0658 46.0231 35.1071C44.1612 39.5478 40.818 43.2061 36.5626 45.4595C32.3071 47.7128 27.4023 48.422 22.6828 47.4662C17.9634 46.5104 13.7209 43.9488 10.6775 40.2173C7.63401 36.4858 5.97761 31.815 5.99017 26.9998C5.99017 26.8062 6.06705 26.6206 6.2039 26.4838C6.34075 26.3469 6.52636 26.2701 6.7199 26.2701C6.91343 26.2701 7.09904 26.3469 7.2359 26.4838C7.37275 26.6206 7.44963 26.8062 7.44963 26.9998C7.44448 31.4726 8.98771 35.8094 11.8172 39.2736C14.6467 42.7377 18.5881 45.1157 22.9719 46.0036C27.3558 46.8916 31.9118 46.2347 35.8664 44.1447C39.8209 42.0546 42.93 38.6602 44.6658 34.5379H44.6075L40.6012 36.1871C40.4277 36.2399 40.2407 36.2263 40.0767 36.1487C39.9127 36.0711 39.7834 35.9353 39.7142 35.7676C39.6449 35.5999 39.6406 35.4125 39.7021 35.2418C39.7635 35.0711 39.8864 34.9294 40.0467 34.8444L44.0456 33.1879C44.3729 33.0469 44.7254 32.9742 45.0818 32.9742C45.4381 32.9742 45.7907 33.0469 46.118 33.1879C46.4439 33.3378 46.7361 33.5521 46.9769 33.818C47.2177 34.0839 47.4021 34.3958 47.5191 34.7349H47.4972Z" fill="white"/>
</svg>
